<?xml version="1.0" encoding="UTF-8" standalone="no"?>
<!-- Created with Inkscape (http://www.inkscape.org/) -->

<svg
   width="210mm"
   height="297mm"
   viewBox="0 0 210 297"
   version="1.1"
   id="svg5"
   inkscape:version="1.2.1 (9c6d41e410, 2022-07-14)"
   sodipodi:docname="logos.svg"
   inkscape:export-filename="calculator_logo.png"
   inkscape:export-xdpi="96"
   inkscape:export-ydpi="96"
   xmlns:inkscape="http://www.inkscape.org/namespaces/inkscape"
   xmlns:sodipodi="http://sodipodi.sourceforge.net/DTD/sodipodi-0.dtd"
   xmlns="http://www.w3.org/2000/svg"
   xmlns:svg="http://www.w3.org/2000/svg">
  <sodipodi:namedview
     id="namedview7"
     pagecolor="#505050"
     bordercolor="#eeeeee"
     borderopacity="1"
     inkscape:showpageshadow="0"
     inkscape:pageopacity="0"
     inkscape:pagecheckerboard="0"
     inkscape:deskcolor="#505050"
     inkscape:document-units="px"
     showgrid="false"
     showborder="false"
     inkscape:zoom="0.0625"
     inkscape:cx="4304"
     inkscape:cy="5664"
     inkscape:window-width="1920"
     inkscape:window-height="1009"
     inkscape:window-x="1912"
     inkscape:window-y="-8"
     inkscape:window-maximized="1"
     inkscape:current-layer="layer1" />
  <defs
     id="defs2">
    <rect
       x="6804"
       y="1880"
       width="1156"
       height="928"
       id="rect1479" />
    <filter
       style="color-interpolation-filters:sRGB;"
       inkscape:label="Color Shift"
       id="filter15516"
       x="0"
       y="0"
       width="1"
       height="1">
      <feColorMatrix
         type="hueRotate"
         values="219"
         result="color1"
         id="feColorMatrix15512" />
      <feColorMatrix
         type="saturate"
         values="1"
         result="color2"
         id="feColorMatrix15514" />
    </filter>
    <filter
       style="color-interpolation-filters:sRGB;"
       inkscape:label="Color Shift"
       id="filter15522"
       x="0"
       y="0"
       width="1"
       height="1">
      <feColorMatrix
         type="hueRotate"
         values="219"
         result="color1"
         id="feColorMatrix15518" />
      <feColorMatrix
         type="saturate"
         values="1"
         result="color2"
         id="feColorMatrix15520" />
    </filter>
    <filter
       style="color-interpolation-filters:sRGB;"
       inkscape:label="Color Shift"
       id="filter15528"
       x="0"
       y="0"
       width="1"
       height="1">
      <feColorMatrix
         type="hueRotate"
         values="219"
         result="color1"
         id="feColorMatrix15524" />
      <feColorMatrix
         type="saturate"
         values="1"
         result="color2"
         id="feColorMatrix15526" />
    </filter>
    <filter
       style="color-interpolation-filters:sRGB;"
       inkscape:label="Color Shift"
       id="filter15534"
       x="0"
       y="0"
       width="1"
       height="1">
      <feColorMatrix
         type="hueRotate"
         values="219"
         result="color1"
         id="feColorMatrix15530" />
      <feColorMatrix
         type="saturate"
         values="1"
         result="color2"
         id="feColorMatrix15532" />
    </filter>
    <filter
       style="color-interpolation-filters:sRGB;"
       inkscape:label="Color Shift"
       id="filter15540"
       x="0"
       y="0"
       width="1"
       height="1">
      <feColorMatrix
         type="hueRotate"
         values="219"
         result="color1"
         id="feColorMatrix15536" />
      <feColorMatrix
         type="saturate"
         values="1"
         result="color2"
         id="feColorMatrix15538" />
    </filter>
    <filter
       style="color-interpolation-filters:sRGB;"
       inkscape:label="Color Shift"
       id="filter15546"
       x="0"
       y="0"
       width="1"
       height="1">
      <feColorMatrix
         type="hueRotate"
         values="219"
         result="color1"
         id="feColorMatrix15542" />
      <feColorMatrix
         type="saturate"
         values="1"
         result="color2"
         id="feColorMatrix15544" />
    </filter>
    <filter
       style="color-interpolation-filters:sRGB;"
       inkscape:label="Color Shift"
       id="filter15552"
       x="0"
       y="0"
       width="1"
       height="1">
      <feColorMatrix
         type="hueRotate"
         values="219"
         result="color1"
         id="feColorMatrix15548" />
      <feColorMatrix
         type="saturate"
         values="1"
         result="color2"
         id="feColorMatrix15550" />
    </filter>
    <filter
       style="color-interpolation-filters:sRGB;"
       inkscape:label="Color Shift"
       id="filter15558"
       x="0"
       y="0"
       width="1"
       height="1">
      <feColorMatrix
         type="hueRotate"
         values="219"
         result="color1"
         id="feColorMatrix15554" />
      <feColorMatrix
         type="saturate"
         values="1"
         result="color2"
         id="feColorMatrix15556" />
    </filter>
    <filter
       style="color-interpolation-filters:sRGB;"
       inkscape:label="Color Shift"
       id="filter15564"
       x="0"
       y="0"
       width="1"
       height="1">
      <feColorMatrix
         type="hueRotate"
         values="219"
         result="color1"
         id="feColorMatrix15560" />
      <feColorMatrix
         type="saturate"
         values="1"
         result="color2"
         id="feColorMatrix15562" />
    </filter>
    <filter
       style="color-interpolation-filters:sRGB;"
       inkscape:label="Color Shift"
       id="filter15552-4"
       x="0"
       y="0"
       width="1"
       height="1">
      <feColorMatrix
         type="hueRotate"
         values="219"
         result="color1"
         id="feColorMatrix15548-9" />
      <feColorMatrix
         type="saturate"
         values="1"
         result="fbSourceGraphic"
         id="feColorMatrix15550-1" />
      <feColorMatrix
         result="fbSourceGraphicAlpha"
         in="fbSourceGraphic"
         values="0 0 0 -1 0 0 0 0 -1 0 0 0 0 -1 0 0 0 0 1 0"
         id="feColorMatrix24604" />
      <feColorMatrix
         id="feColorMatrix24606"
         type="hueRotate"
         values="219"
         result="color1"
         in="fbSourceGraphic" />
      <feColorMatrix
         id="feColorMatrix24608"
         type="saturate"
         values="1"
         result="fbSourceGraphic" />
      <feColorMatrix
         result="fbSourceGraphicAlpha"
         in="fbSourceGraphic"
         values="0 0 0 -1 0 0 0 0 -1 0 0 0 0 -1 0 0 0 0 1 0"
         id="feColorMatrix24658" />
      <feColorMatrix
         id="feColorMatrix24660"
         type="hueRotate"
         values="219"
         result="color1"
         in="fbSourceGraphic" />
      <feColorMatrix
         id="feColorMatrix24662"
         type="saturate"
         values="1"
         result="color2" />
    </filter>
    <filter
       style="color-interpolation-filters:sRGB;"
       inkscape:label="Color Shift"
       id="filter15546-9"
       x="0"
       y="0"
       width="1"
       height="1">
      <feColorMatrix
         type="hueRotate"
         values="219"
         result="color1"
         id="feColorMatrix15542-1" />
      <feColorMatrix
         type="saturate"
         values="1"
         result="fbSourceGraphic"
         id="feColorMatrix15544-7" />
      <feColorMatrix
         result="fbSourceGraphicAlpha"
         in="fbSourceGraphic"
         values="0 0 0 -1 0 0 0 0 -1 0 0 0 0 -1 0 0 0 0 1 0"
         id="feColorMatrix24610" />
      <feColorMatrix
         id="feColorMatrix24612"
         type="hueRotate"
         values="219"
         result="color1"
         in="fbSourceGraphic" />
      <feColorMatrix
         id="feColorMatrix24614"
         type="saturate"
         values="1"
         result="fbSourceGraphic" />
      <feColorMatrix
         result="fbSourceGraphicAlpha"
         in="fbSourceGraphic"
         values="0 0 0 -1 0 0 0 0 -1 0 0 0 0 -1 0 0 0 0 1 0"
         id="feColorMatrix24664" />
      <feColorMatrix
         id="feColorMatrix24666"
         type="hueRotate"
         values="219"
         result="color1"
         in="fbSourceGraphic" />
      <feColorMatrix
         id="feColorMatrix24668"
         type="saturate"
         values="1"
         result="color2" />
    </filter>
    <filter
       style="color-interpolation-filters:sRGB;"
       inkscape:label="Color Shift"
       id="filter15564-8"
       x="0"
       y="0"
       width="1"
       height="1">
      <feColorMatrix
         type="hueRotate"
         values="219"
         result="color1"
         id="feColorMatrix15560-4" />
      <feColorMatrix
         type="saturate"
         values="1"
         result="fbSourceGraphic"
         id="feColorMatrix15562-0" />
      <feColorMatrix
         result="fbSourceGraphicAlpha"
         in="fbSourceGraphic"
         values="0 0 0 -1 0 0 0 0 -1 0 0 0 0 -1 0 0 0 0 1 0"
         id="feColorMatrix24616" />
      <feColorMatrix
         id="feColorMatrix24618"
         type="hueRotate"
         values="219"
         result="color1"
         in="fbSourceGraphic" />
      <feColorMatrix
         id="feColorMatrix24620"
         type="saturate"
         values="1"
         result="fbSourceGraphic" />
      <feColorMatrix
         result="fbSourceGraphicAlpha"
         in="fbSourceGraphic"
         values="0 0 0 -1 0 0 0 0 -1 0 0 0 0 -1 0 0 0 0 1 0"
         id="feColorMatrix24670" />
      <feColorMatrix
         id="feColorMatrix24672"
         type="hueRotate"
         values="219"
         result="color1"
         in="fbSourceGraphic" />
      <feColorMatrix
         id="feColorMatrix24674"
         type="saturate"
         values="1"
         result="color2" />
    </filter>
    <filter
       style="color-interpolation-filters:sRGB;"
       inkscape:label="Color Shift"
       id="filter15558-3"
       x="0"
       y="0"
       width="1"
       height="1">
      <feColorMatrix
         type="hueRotate"
         values="219"
         result="color1"
         id="feColorMatrix15554-6" />
      <feColorMatrix
         type="saturate"
         values="1"
         result="fbSourceGraphic"
         id="feColorMatrix15556-9" />
      <feColorMatrix
         result="fbSourceGraphicAlpha"
         in="fbSourceGraphic"
         values="0 0 0 -1 0 0 0 0 -1 0 0 0 0 -1 0 0 0 0 1 0"
         id="feColorMatrix24622" />
      <feColorMatrix
         id="feColorMatrix24624"
         type="hueRotate"
         values="219"
         result="color1"
         in="fbSourceGraphic" />
      <feColorMatrix
         id="feColorMatrix24626"
         type="saturate"
         values="1"
         result="fbSourceGraphic" />
      <feColorMatrix
         result="fbSourceGraphicAlpha"
         in="fbSourceGraphic"
         values="0 0 0 -1 0 0 0 0 -1 0 0 0 0 -1 0 0 0 0 1 0"
         id="feColorMatrix24676" />
      <feColorMatrix
         id="feColorMatrix24678"
         type="hueRotate"
         values="219"
         result="color1"
         in="fbSourceGraphic" />
      <feColorMatrix
         id="feColorMatrix24680"
         type="saturate"
         values="1"
         result="color2" />
    </filter>
    <filter
       style="color-interpolation-filters:sRGB;"
       inkscape:label="Color Shift"
       id="filter15540-7"
       x="0"
       y="0"
       width="1"
       height="1">
      <feColorMatrix
         type="hueRotate"
         values="219"
         result="color1"
         id="feColorMatrix15536-8" />
      <feColorMatrix
         type="saturate"
         values="1"
         result="fbSourceGraphic"
         id="feColorMatrix15538-8" />
      <feColorMatrix
         result="fbSourceGraphicAlpha"
         in="fbSourceGraphic"
         values="0 0 0 -1 0 0 0 0 -1 0 0 0 0 -1 0 0 0 0 1 0"
         id="feColorMatrix24628" />
      <feColorMatrix
         id="feColorMatrix24630"
         type="hueRotate"
         values="219"
         result="color1"
         in="fbSourceGraphic" />
      <feColorMatrix
         id="feColorMatrix24632"
         type="saturate"
         values="1"
         result="fbSourceGraphic" />
      <feColorMatrix
         result="fbSourceGraphicAlpha"
         in="fbSourceGraphic"
         values="0 0 0 -1 0 0 0 0 -1 0 0 0 0 -1 0 0 0 0 1 0"
         id="feColorMatrix24682" />
      <feColorMatrix
         id="feColorMatrix24684"
         type="hueRotate"
         values="219"
         result="color1"
         in="fbSourceGraphic" />
      <feColorMatrix
         id="feColorMatrix24686"
         type="saturate"
         values="1"
         result="color2" />
    </filter>
    <filter
       style="color-interpolation-filters:sRGB;"
       inkscape:label="Color Shift"
       id="filter15534-0"
       x="0"
       y="0"
       width="1"
       height="1">
      <feColorMatrix
         type="hueRotate"
         values="219"
         result="color1"
         id="feColorMatrix15530-2" />
      <feColorMatrix
         type="saturate"
         values="1"
         result="fbSourceGraphic"
         id="feColorMatrix15532-9" />
      <feColorMatrix
         result="fbSourceGraphicAlpha"
         in="fbSourceGraphic"
         values="0 0 0 -1 0 0 0 0 -1 0 0 0 0 -1 0 0 0 0 1 0"
         id="feColorMatrix24634" />
      <feColorMatrix
         id="feColorMatrix24636"
         type="hueRotate"
         values="219"
         result="color1"
         in="fbSourceGraphic" />
      <feColorMatrix
         id="feColorMatrix24638"
         type="saturate"
         values="1"
         result="fbSourceGraphic" />
      <feColorMatrix
         result="fbSourceGraphicAlpha"
         in="fbSourceGraphic"
         values="0 0 0 -1 0 0 0 0 -1 0 0 0 0 -1 0 0 0 0 1 0"
         id="feColorMatrix24688" />
      <feColorMatrix
         id="feColorMatrix24690"
         type="hueRotate"
         values="219"
         result="color1"
         in="fbSourceGraphic" />
      <feColorMatrix
         id="feColorMatrix24692"
         type="saturate"
         values="1"
         result="color2" />
    </filter>
    <filter
       style="color-interpolation-filters:sRGB;"
       inkscape:label="Color Shift"
       id="filter15528-2"
       x="0"
       y="0"
       width="1"
       height="1">
      <feColorMatrix
         type="hueRotate"
         values="219"
         result="color1"
         id="feColorMatrix15524-5" />
      <feColorMatrix
         type="saturate"
         values="1"
         result="fbSourceGraphic"
         id="feColorMatrix15526-5" />
      <feColorMatrix
         result="fbSourceGraphicAlpha"
         in="fbSourceGraphic"
         values="0 0 0 -1 0 0 0 0 -1 0 0 0 0 -1 0 0 0 0 1 0"
         id="feColorMatrix24640" />
      <feColorMatrix
         id="feColorMatrix24642"
         type="hueRotate"
         values="219"
         result="color1"
         in="fbSourceGraphic" />
      <feColorMatrix
         id="feColorMatrix24644"
         type="saturate"
         values="1"
         result="fbSourceGraphic" />
      <feColorMatrix
         result="fbSourceGraphicAlpha"
         in="fbSourceGraphic"
         values="0 0 0 -1 0 0 0 0 -1 0 0 0 0 -1 0 0 0 0 1 0"
         id="feColorMatrix24694" />
      <feColorMatrix
         id="feColorMatrix24696"
         type="hueRotate"
         values="219"
         result="color1"
         in="fbSourceGraphic" />
      <feColorMatrix
         id="feColorMatrix24698"
         type="saturate"
         values="1"
         result="color2" />
    </filter>
    <filter
       style="color-interpolation-filters:sRGB;"
       inkscape:label="Color Shift"
       id="filter15522-1"
       x="0"
       y="0"
       width="1"
       height="1">
      <feColorMatrix
         type="hueRotate"
         values="219"
         result="color1"
         id="feColorMatrix15518-9" />
      <feColorMatrix
         type="saturate"
         values="1"
         result="fbSourceGraphic"
         id="feColorMatrix15520-3" />
      <feColorMatrix
         result="fbSourceGraphicAlpha"
         in="fbSourceGraphic"
         values="0 0 0 -1 0 0 0 0 -1 0 0 0 0 -1 0 0 0 0 1 0"
         id="feColorMatrix24646" />
      <feColorMatrix
         id="feColorMatrix24648"
         type="hueRotate"
         values="219"
         result="color1"
         in="fbSourceGraphic" />
      <feColorMatrix
         id="feColorMatrix24650"
         type="saturate"
         values="1"
         result="fbSourceGraphic" />
      <feColorMatrix
         result="fbSourceGraphicAlpha"
         in="fbSourceGraphic"
         values="0 0 0 -1 0 0 0 0 -1 0 0 0 0 -1 0 0 0 0 1 0"
         id="feColorMatrix24700" />
      <feColorMatrix
         id="feColorMatrix24702"
         type="hueRotate"
         values="219"
         result="color1"
         in="fbSourceGraphic" />
      <feColorMatrix
         id="feColorMatrix24704"
         type="saturate"
         values="1"
         result="color2" />
    </filter>
    <filter
       style="color-interpolation-filters:sRGB;"
       inkscape:label="Color Shift"
       id="filter15516-4"
       x="0"
       y="0"
       width="1"
       height="1">
      <feColorMatrix
         type="hueRotate"
         values="219"
         result="color1"
         id="feColorMatrix15512-3" />
      <feColorMatrix
         type="saturate"
         values="1"
         result="fbSourceGraphic"
         id="feColorMatrix15514-5" />
      <feColorMatrix
         result="fbSourceGraphicAlpha"
         in="fbSourceGraphic"
         values="0 0 0 -1 0 0 0 0 -1 0 0 0 0 -1 0 0 0 0 1 0"
         id="feColorMatrix24652" />
      <feColorMatrix
         id="feColorMatrix24654"
         type="hueRotate"
         values="219"
         result="color1"
         in="fbSourceGraphic" />
      <feColorMatrix
         id="feColorMatrix24656"
         type="saturate"
         values="1"
         result="fbSourceGraphic" />
      <feColorMatrix
         result="fbSourceGraphicAlpha"
         in="fbSourceGraphic"
         values="0 0 0 -1 0 0 0 0 -1 0 0 0 0 -1 0 0 0 0 1 0"
         id="feColorMatrix24706" />
      <feColorMatrix
         id="feColorMatrix24708"
         type="hueRotate"
         values="219"
         result="color1"
         in="fbSourceGraphic" />
      <feColorMatrix
         id="feColorMatrix24710"
         type="saturate"
         values="1"
         result="color2" />
    </filter>
    <filter
       style="color-interpolation-filters:sRGB"
       inkscape:label="Color Shift"
       id="filter15516-4-2"
       x="0"
       y="0"
       width="1"
       height="1">
      <feColorMatrix
         type="hueRotate"
         values="219"
         result="color1"
         id="feColorMatrix15512-3-8" />
      <feColorMatrix
         type="saturate"
         values="1"
         result="fbSourceGraphic"
         id="feColorMatrix15514-5-4" />
      <feColorMatrix
         result="fbSourceGraphicAlpha"
         in="fbSourceGraphic"
         values="0 0 0 -1 0 0 0 0 -1 0 0 0 0 -1 0 0 0 0 1 0"
         id="feColorMatrix24652-8" />
      <feColorMatrix
         id="feColorMatrix24654-9"
         type="hueRotate"
         values="219"
         result="color1"
         in="fbSourceGraphic" />
      <feColorMatrix
         id="feColorMatrix24656-0"
         type="saturate"
         values="1"
         result="fbSourceGraphic" />
      <feColorMatrix
         result="fbSourceGraphicAlpha"
         in="fbSourceGraphic"
         values="0 0 0 -1 0 0 0 0 -1 0 0 0 0 -1 0 0 0 0 1 0"
         id="feColorMatrix24706-4" />
      <feColorMatrix
         id="feColorMatrix24708-3"
         type="hueRotate"
         values="219"
         result="color1"
         in="fbSourceGraphic" />
      <feColorMatrix
         id="feColorMatrix24710-6"
         type="saturate"
         values="1"
         result="color2" />
    </filter>
    <filter
       style="color-interpolation-filters:sRGB"
       inkscape:label="Color Shift"
       id="filter15516-7"
       x="0"
       y="0"
       width="1"
       height="1">
      <feColorMatrix
         type="hueRotate"
         values="219"
         result="color1"
         id="feColorMatrix15512-38" />
      <feColorMatrix
         type="saturate"
         values="1"
         result="color2"
         id="feColorMatrix15514-1" />
    </filter>
    <filter
       style="color-interpolation-filters:sRGB"
       inkscape:label="Color Shift"
       id="filter15522-1-3"
       x="0"
       y="0"
       width="1"
       height="1">
      <feColorMatrix
         type="hueRotate"
         values="219"
         result="color1"
         id="feColorMatrix15518-9-4" />
      <feColorMatrix
         type="saturate"
         values="1"
         result="fbSourceGraphic"
         id="feColorMatrix15520-3-6" />
      <feColorMatrix
         result="fbSourceGraphicAlpha"
         in="fbSourceGraphic"
         values="0 0 0 -1 0 0 0 0 -1 0 0 0 0 -1 0 0 0 0 1 0"
         id="feColorMatrix24646-3" />
      <feColorMatrix
         id="feColorMatrix24648-3"
         type="hueRotate"
         values="219"
         result="color1"
         in="fbSourceGraphic" />
      <feColorMatrix
         id="feColorMatrix24650-2"
         type="saturate"
         values="1"
         result="fbSourceGraphic" />
      <feColorMatrix
         result="fbSourceGraphicAlpha"
         in="fbSourceGraphic"
         values="0 0 0 -1 0 0 0 0 -1 0 0 0 0 -1 0 0 0 0 1 0"
         id="feColorMatrix24700-0" />
      <feColorMatrix
         id="feColorMatrix24702-4"
         type="hueRotate"
         values="219"
         result="color1"
         in="fbSourceGraphic" />
      <feColorMatrix
         id="feColorMatrix24704-4"
         type="saturate"
         values="1"
         result="color2" />
    </filter>
    <filter
       style="color-interpolation-filters:sRGB"
       inkscape:label="Color Shift"
       id="filter15528-2-4"
       x="0"
       y="0"
       width="1"
       height="1">
      <feColorMatrix
         type="hueRotate"
         values="219"
         result="color1"
         id="feColorMatrix15524-5-6" />
      <feColorMatrix
         type="saturate"
         values="1"
         result="fbSourceGraphic"
         id="feColorMatrix15526-5-3" />
      <feColorMatrix
         result="fbSourceGraphicAlpha"
         in="fbSourceGraphic"
         values="0 0 0 -1 0 0 0 0 -1 0 0 0 0 -1 0 0 0 0 1 0"
         id="feColorMatrix24640-9" />
      <feColorMatrix
         id="feColorMatrix24642-7"
         type="hueRotate"
         values="219"
         result="color1"
         in="fbSourceGraphic" />
      <feColorMatrix
         id="feColorMatrix24644-8"
         type="saturate"
         values="1"
         result="fbSourceGraphic" />
      <feColorMatrix
         result="fbSourceGraphicAlpha"
         in="fbSourceGraphic"
         values="0 0 0 -1 0 0 0 0 -1 0 0 0 0 -1 0 0 0 0 1 0"
         id="feColorMatrix24694-3" />
      <feColorMatrix
         id="feColorMatrix24696-2"
         type="hueRotate"
         values="219"
         result="color1"
         in="fbSourceGraphic" />
      <feColorMatrix
         id="feColorMatrix24698-9"
         type="saturate"
         values="1"
         result="color2" />
    </filter>
    <filter
       style="color-interpolation-filters:sRGB"
       inkscape:label="Color Shift"
       id="filter15522-0"
       x="0"
       y="0"
       width="1"
       height="1">
      <feColorMatrix
         type="hueRotate"
         values="219"
         result="color1"
         id="feColorMatrix15518-4" />
      <feColorMatrix
         type="saturate"
         values="1"
         result="color2"
         id="feColorMatrix15520-2" />
    </filter>
    <filter
       style="color-interpolation-filters:sRGB"
       inkscape:label="Color Shift"
       id="filter15534-0-2"
       x="0"
       y="0"
       width="1"
       height="1">
      <feColorMatrix
         type="hueRotate"
         values="219"
         result="color1"
         id="feColorMatrix15530-2-7" />
      <feColorMatrix
         type="saturate"
         values="1"
         result="fbSourceGraphic"
         id="feColorMatrix15532-9-0" />
      <feColorMatrix
         result="fbSourceGraphicAlpha"
         in="fbSourceGraphic"
         values="0 0 0 -1 0 0 0 0 -1 0 0 0 0 -1 0 0 0 0 1 0"
         id="feColorMatrix24634-4" />
      <feColorMatrix
         id="feColorMatrix24636-7"
         type="hueRotate"
         values="219"
         result="color1"
         in="fbSourceGraphic" />
      <feColorMatrix
         id="feColorMatrix24638-3"
         type="saturate"
         values="1"
         result="fbSourceGraphic" />
      <feColorMatrix
         result="fbSourceGraphicAlpha"
         in="fbSourceGraphic"
         values="0 0 0 -1 0 0 0 0 -1 0 0 0 0 -1 0 0 0 0 1 0"
         id="feColorMatrix24688-9" />
      <feColorMatrix
         id="feColorMatrix24690-4"
         type="hueRotate"
         values="219"
         result="color1"
         in="fbSourceGraphic" />
      <feColorMatrix
         id="feColorMatrix24692-5"
         type="saturate"
         values="1"
         result="color2" />
    </filter>
    <filter
       style="color-interpolation-filters:sRGB"
       inkscape:label="Color Shift"
       id="filter15540-7-8"
       x="0"
       y="0"
       width="1"
       height="1">
      <feColorMatrix
         type="hueRotate"
         values="219"
         result="color1"
         id="feColorMatrix15536-8-1" />
      <feColorMatrix
         type="saturate"
         values="1"
         result="fbSourceGraphic"
         id="feColorMatrix15538-8-9" />
      <feColorMatrix
         result="fbSourceGraphicAlpha"
         in="fbSourceGraphic"
         values="0 0 0 -1 0 0 0 0 -1 0 0 0 0 -1 0 0 0 0 1 0"
         id="feColorMatrix24628-8" />
      <feColorMatrix
         id="feColorMatrix24630-5"
         type="hueRotate"
         values="219"
         result="color1"
         in="fbSourceGraphic" />
      <feColorMatrix
         id="feColorMatrix24632-8"
         type="saturate"
         values="1"
         result="fbSourceGraphic" />
      <feColorMatrix
         result="fbSourceGraphicAlpha"
         in="fbSourceGraphic"
         values="0 0 0 -1 0 0 0 0 -1 0 0 0 0 -1 0 0 0 0 1 0"
         id="feColorMatrix24682-0" />
      <feColorMatrix
         id="feColorMatrix24684-9"
         type="hueRotate"
         values="219"
         result="color1"
         in="fbSourceGraphic" />
      <feColorMatrix
         id="feColorMatrix24686-3"
         type="saturate"
         values="1"
         result="color2" />
    </filter>
    <filter
       style="color-interpolation-filters:sRGB"
       inkscape:label="Color Shift"
       id="filter15528-4"
       x="0"
       y="0"
       width="1"
       height="1">
      <feColorMatrix
         type="hueRotate"
         values="219"
         result="color1"
         id="feColorMatrix15524-6" />
      <feColorMatrix
         type="saturate"
         values="1"
         result="color2"
         id="feColorMatrix15526-9" />
    </filter>
    <filter
       style="color-interpolation-filters:sRGB"
       inkscape:label="Color Shift"
       id="filter15558-3-6"
       x="0"
       y="0"
       width="1"
       height="1">
      <feColorMatrix
         type="hueRotate"
         values="219"
         result="color1"
         id="feColorMatrix15554-6-8" />
      <feColorMatrix
         type="saturate"
         values="1"
         result="fbSourceGraphic"
         id="feColorMatrix15556-9-3" />
      <feColorMatrix
         result="fbSourceGraphicAlpha"
         in="fbSourceGraphic"
         values="0 0 0 -1 0 0 0 0 -1 0 0 0 0 -1 0 0 0 0 1 0"
         id="feColorMatrix24622-5" />
      <feColorMatrix
         id="feColorMatrix24624-1"
         type="hueRotate"
         values="219"
         result="color1"
         in="fbSourceGraphic" />
      <feColorMatrix
         id="feColorMatrix24626-8"
         type="saturate"
         values="1"
         result="fbSourceGraphic" />
      <feColorMatrix
         result="fbSourceGraphicAlpha"
         in="fbSourceGraphic"
         values="0 0 0 -1 0 0 0 0 -1 0 0 0 0 -1 0 0 0 0 1 0"
         id="feColorMatrix24676-1" />
      <feColorMatrix
         id="feColorMatrix24678-9"
         type="hueRotate"
         values="219"
         result="color1"
         in="fbSourceGraphic" />
      <feColorMatrix
         id="feColorMatrix24680-0"
         type="saturate"
         values="1"
         result="color2" />
    </filter>
    <filter
       style="color-interpolation-filters:sRGB"
       inkscape:label="Color Shift"
       id="filter15564-8-9"
       x="0"
       y="0"
       width="1"
       height="1">
      <feColorMatrix
         type="hueRotate"
         values="219"
         result="color1"
         id="feColorMatrix15560-4-9" />
      <feColorMatrix
         type="saturate"
         values="1"
         result="fbSourceGraphic"
         id="feColorMatrix15562-0-2" />
      <feColorMatrix
         result="fbSourceGraphicAlpha"
         in="fbSourceGraphic"
         values="0 0 0 -1 0 0 0 0 -1 0 0 0 0 -1 0 0 0 0 1 0"
         id="feColorMatrix24616-6" />
      <feColorMatrix
         id="feColorMatrix24618-2"
         type="hueRotate"
         values="219"
         result="color1"
         in="fbSourceGraphic" />
      <feColorMatrix
         id="feColorMatrix24620-4"
         type="saturate"
         values="1"
         result="fbSourceGraphic" />
      <feColorMatrix
         result="fbSourceGraphicAlpha"
         in="fbSourceGraphic"
         values="0 0 0 -1 0 0 0 0 -1 0 0 0 0 -1 0 0 0 0 1 0"
         id="feColorMatrix24670-3" />
      <feColorMatrix
         id="feColorMatrix24672-1"
         type="hueRotate"
         values="219"
         result="color1"
         in="fbSourceGraphic" />
      <feColorMatrix
         id="feColorMatrix24674-6"
         type="saturate"
         values="1"
         result="color2" />
    </filter>
    <filter
       style="color-interpolation-filters:sRGB"
       inkscape:label="Color Shift"
       id="filter15534-7"
       x="0"
       y="0"
       width="1"
       height="1">
      <feColorMatrix
         type="hueRotate"
         values="219"
         result="color1"
         id="feColorMatrix15530-5" />
      <feColorMatrix
         type="saturate"
         values="1"
         result="color2"
         id="feColorMatrix15532-1" />
    </filter>
    <filter
       style="color-interpolation-filters:sRGB"
       inkscape:label="Color Shift"
       id="filter15546-9-4"
       x="0"
       y="0"
       width="1"
       height="1">
      <feColorMatrix
         type="hueRotate"
         values="219"
         result="color1"
         id="feColorMatrix15542-1-5" />
      <feColorMatrix
         type="saturate"
         values="1"
         result="fbSourceGraphic"
         id="feColorMatrix15544-7-0" />
      <feColorMatrix
         result="fbSourceGraphicAlpha"
         in="fbSourceGraphic"
         values="0 0 0 -1 0 0 0 0 -1 0 0 0 0 -1 0 0 0 0 1 0"
         id="feColorMatrix24610-1" />
      <feColorMatrix
         id="feColorMatrix24612-8"
         type="hueRotate"
         values="219"
         result="color1"
         in="fbSourceGraphic" />
      <feColorMatrix
         id="feColorMatrix24614-0"
         type="saturate"
         values="1"
         result="fbSourceGraphic" />
      <feColorMatrix
         result="fbSourceGraphicAlpha"
         in="fbSourceGraphic"
         values="0 0 0 -1 0 0 0 0 -1 0 0 0 0 -1 0 0 0 0 1 0"
         id="feColorMatrix24664-8" />
      <feColorMatrix
         id="feColorMatrix24666-4"
         type="hueRotate"
         values="219"
         result="color1"
         in="fbSourceGraphic" />
      <feColorMatrix
         id="feColorMatrix24668-3"
         type="saturate"
         values="1"
         result="color2" />
    </filter>
    <filter
       style="color-interpolation-filters:sRGB"
       inkscape:label="Color Shift"
       id="filter15552-4-8"
       x="0"
       y="0"
       width="1"
       height="1">
      <feColorMatrix
         type="hueRotate"
         values="219"
         result="color1"
         id="feColorMatrix15548-9-8" />
      <feColorMatrix
         type="saturate"
         values="1"
         result="fbSourceGraphic"
         id="feColorMatrix15550-1-6" />
      <feColorMatrix
         result="fbSourceGraphicAlpha"
         in="fbSourceGraphic"
         values="0 0 0 -1 0 0 0 0 -1 0 0 0 0 -1 0 0 0 0 1 0"
         id="feColorMatrix24604-1" />
      <feColorMatrix
         id="feColorMatrix24606-9"
         type="hueRotate"
         values="219"
         result="color1"
         in="fbSourceGraphic" />
      <feColorMatrix
         id="feColorMatrix24608-9"
         type="saturate"
         values="1"
         result="fbSourceGraphic" />
      <feColorMatrix
         result="fbSourceGraphicAlpha"
         in="fbSourceGraphic"
         values="0 0 0 -1 0 0 0 0 -1 0 0 0 0 -1 0 0 0 0 1 0"
         id="feColorMatrix24658-3" />
      <feColorMatrix
         id="feColorMatrix24660-9"
         type="hueRotate"
         values="219"
         result="color1"
         in="fbSourceGraphic" />
      <feColorMatrix
         id="feColorMatrix24662-4"
         type="saturate"
         values="1"
         result="color2" />
    </filter>
    <filter
       style="color-interpolation-filters:sRGB"
       inkscape:label="Color Shift"
       id="filter15540-8"
       x="0"
       y="0"
       width="1"
       height="1">
      <feColorMatrix
         type="hueRotate"
         values="219"
         result="color1"
         id="feColorMatrix15536-4" />
      <feColorMatrix
         type="saturate"
         values="1"
         result="color2"
         id="feColorMatrix15538-6" />
    </filter>
    <filter
       style="color-interpolation-filters:sRGB"
       inkscape:label="Color Shift"
       id="filter15558-4"
       x="0"
       y="0"
       width="1"
       height="1">
      <feColorMatrix
         type="hueRotate"
         values="219"
         result="color1"
         id="feColorMatrix15554-3" />
      <feColorMatrix
         type="saturate"
         values="1"
         result="color2"
         id="feColorMatrix15556-5" />
    </filter>
    <filter
       style="color-interpolation-filters:sRGB"
       inkscape:label="Color Shift"
       id="filter15564-1"
       x="0"
       y="0"
       width="1"
       height="1">
      <feColorMatrix
         type="hueRotate"
         values="219"
         result="color1"
         id="feColorMatrix15560-7" />
      <feColorMatrix
         type="saturate"
         values="1"
         result="color2"
         id="feColorMatrix15562-7" />
    </filter>
    <filter
       style="color-interpolation-filters:sRGB"
       inkscape:label="Color Shift"
       id="filter15546-7"
       x="0"
       y="0"
       width="1"
       height="1">
      <feColorMatrix
         type="hueRotate"
         values="219"
         result="color1"
         id="feColorMatrix15542-2" />
      <feColorMatrix
         type="saturate"
         values="1"
         result="color2"
         id="feColorMatrix15544-6" />
    </filter>
    <filter
       style="color-interpolation-filters:sRGB"
       inkscape:label="Color Shift"
       id="filter15552-1"
       x="0"
       y="0"
       width="1"
       height="1">
      <feColorMatrix
         type="hueRotate"
         values="219"
         result="color1"
         id="feColorMatrix15548-8" />
      <feColorMatrix
         type="saturate"
         values="1"
         result="color2"
         id="feColorMatrix15550-5" />
    </filter>
  </defs>
  <g
     inkscape:label="Layer 1"
     inkscape:groupmode="layer"
     id="layer1">
    <path
       id="rect5481-0-1-77"
       style="fill:#1b1b1b;fill-opacity:1;stroke-width:0.12278"
       d="m 1946.2946,523.28382 a 22.577805,22.577724 0 0 0 -22.578,22.57818 v 45.15539 45.15491 a 22.577805,22.577724 0 0 0 22.578,22.57819 h 90.3114 a 22.577805,22.577724 0 0 0 22.5773,-22.57819 V 591.01739 545.862 a 22.577805,22.577724 0 0 0 -22.5773,-22.57818 z"
       inkscape:export-filename=".\maskable_icon_x512.png"
       inkscape:export-xdpi="96"
       inkscape:export-ydpi="96" />
    <text
       xml:space="preserve"
       style="font-style:normal;font-variant:normal;font-weight:normal;font-stretch:normal;font-size:46.41px;font-family:Hack;-inkscape-font-specification:Hack;fill:#2cafe3;fill-opacity:1;stroke-width:3.8675"
       x="1972.0164"
       y="595.46216"
       id="text8441-0-7-4"
       transform="scale(0.98290502,1.0173923)"><tspan
         sodipodi:role="line"
         id="tspan8439-5-6-65"
         style="font-style:normal;font-variant:normal;font-weight:normal;font-stretch:normal;font-family:Hack;-inkscape-font-specification:Hack;fill:#2cafe3;fill-opacity:1;stroke-width:3.8675"
         x="1972.0164"
         y="595.46216"><tspan
   style="fill:#dddddd;fill-opacity:1;stroke-width:3.8675"
   id="tspan976-05">f</tspan>(<tspan
   style="font-style:normal;font-variant:normal;font-weight:normal;font-stretch:normal;font-family:Hack;-inkscape-font-specification:Hack;fill:#add8e6;fill-opacity:1;stroke-width:3.8675"
   id="tspan18111-6-2-38">x</tspan>)</tspan></text>
    <path
       id="rect5481-0-1-4"
       style="fill:#1b1b1b;fill-opacity:1;stroke-width:0.0613899"
       d="m 697.95528,525.08516 a 11.288903,11.288862 0 0 0 -11.28896,11.28909 v 22.5777 22.57745 a 11.288903,11.288862 0 0 0 11.28896,11.28909 h 45.15575 a 11.288903,11.288862 0 0 0 11.28862,-11.28909 v -22.57745 -22.5777 a 11.288903,11.288862 0 0 0 -11.28862,-11.28909 z"
       inkscape:export-filename=".\icon-256.png"
       inkscape:export-xdpi="96"
       inkscape:export-ydpi="96" />
    <text
       xml:space="preserve"
       style="font-style:normal;font-variant:normal;font-weight:normal;font-stretch:normal;font-size:23.205px;font-family:Hack;-inkscape-font-specification:Hack;fill:#2cafe3;fill-opacity:1;stroke-width:1.93375"
       x="706.02991"
       y="556.67084"
       id="text8441-0-7-8"
       transform="scale(0.98290503,1.0173923)"><tspan
         sodipodi:role="line"
         id="tspan8439-5-6-62"
         style="font-style:normal;font-variant:normal;font-weight:normal;font-stretch:normal;font-family:Hack;-inkscape-font-specification:Hack;fill:#2cafe3;fill-opacity:1;stroke-width:1.93375"
         x="706.02991"
         y="556.67084"><tspan
   style="fill:#add8e6;fill-opacity:1;stroke-width:1.93375"
   id="tspan976-3">f</tspan>(<tspan
   style="font-style:normal;font-variant:normal;font-weight:normal;font-stretch:normal;font-family:Hack;-inkscape-font-specification:Hack;fill:#add8e6;fill-opacity:1;stroke-width:1.93375"
   id="tspan18111-6-2-8">x</tspan>)</tspan></text>
    <path
       id="rect5481-0-1-9"
       style="fill:#1b1b1b;fill-opacity:1;stroke-width:0.24556"
       d="m 272.62021,414.7125 a 45.155609,45.155447 0 0 0 -45.1559,45.15637 v 90.31078 90.30982 a 45.155609,45.155447 0 0 0 45.1559,45.15637 h 180.623 a 45.155609,45.155447 0 0 0 45.1544,-45.15637 v -90.30982 -90.31078 a 45.155609,45.155447 0 0 0 -45.1544,-45.15637 z"
       inkscape:export-filename="icon-1024.png"
       inkscape:export-xdpi="96"
       inkscape:export-ydpi="96" />
    <text
       xml:space="preserve"
       style="font-style:normal;font-variant:normal;font-weight:normal;font-stretch:normal;font-size:100.011px;font-family:Hack;-inkscape-font-specification:Hack;fill:#2cafe3;fill-opacity:1;stroke-width:8.33425"
       x="245.65735"
       y="581.5791"
       id="text8441-0-7-1"><tspan
         sodipodi:role="line"
         id="tspan8439-5-6-6"
         style="font-style:normal;font-variant:normal;font-weight:normal;font-stretch:normal;font-family:Hack;-inkscape-font-specification:Hack;fill:#2cafe3;fill-opacity:1;stroke-width:8.33425"
         x="245.65735"
         y="581.5791"><tspan
   style="fill:#add8e6;fill-opacity:1"
   id="tspan976-0">f</tspan>(<tspan
   style="font-style:normal;font-variant:normal;font-weight:normal;font-stretch:normal;font-family:Hack;-inkscape-font-specification:Hack;fill:#add8e6;fill-opacity:1;stroke-width:8.33425"
   id="tspan18111-6-2-4">x</tspan>)</tspan></text>
    <path
       id="rect5481-0-1-9-5"
       style="fill:#1b1b1b;fill-opacity:1;stroke-width:0.24556"
       d="m 264.53308,960.72223 a 45.155609,45.155447 0 0 0 -45.1559,45.15637 v 90.3108 90.3098 a 45.155609,45.155447 0 0 0 45.1559,45.1564 h 180.623 a 45.155609,45.155447 0 0 0 45.1544,-45.1564 v -90.3098 -90.3108 a 45.155609,45.155447 0 0 0 -45.1544,-45.15637 z"
       inkscape:export-filename="experimental\icon-1024.png"
       inkscape:export-xdpi="96"
       inkscape:export-ydpi="96" />
    <path
       id="path41693"
       style="fill:#141414;fill-opacity:1;stroke-width:0.24556"
       d="m 229.00857,978.04688 a 45.155609,45.155447 0 0 0 -9.63146,27.83192 v 90.3107 90.3098 a 45.155609,45.155447 0 0 0 45.1559,45.1564 H 445.1561 a 45.155609,45.155447 0 0 0 33.30649,-14.6668 z" />
    <path
       id="path39931"
       style="font-size:100.011px;font-family:Hack;-inkscape-font-specification:Hack;fill:#6269cf;fill-opacity:1;stroke-width:8.33425"
       d="m 280.38635,1051.6041 c -5.82743,0 -10.12503,1.416 -12.89224,4.2484 -1.5929,1.6497 -2.71868,3.8391 -3.38377,6.5603 h 4.06797 c -0.47673,1.9505 -0.7183,4.1725 -0.7183,6.6735 v 3.809 h -14.60118 v 2.3431 h 3.61477 v 4.64 h 14.60117 v 1.5265 h -6.87193 v 15.0528 h -3.55172 v 18.4299 h 5.69784 v 12.7011 h 8.9855 v -12.7011 h -5.69784 v -18.4299 h 3.55172 v -15.0528 h 6.87193 v -1.5265 h 18.80092 v -4.64 h -3.61477 v -2.3431 H 276.4455 v -4.8343 c 0,-2.4191 0.33555,-4.2965 0.99632,-5.6482 h -4.06796 c 0.25513,-0.5219 0.55427,-0.9726 0.90795,-1.3353 1.26964,-1.3348 3.50012,-2.002 6.69055,-2.002 h 10.20609 v -7.4714 z m 49.51687,0.098 c -2.34671,3.6572 -4.36688,7.225 -6.08593,10.711 h 4.06797 c -0.11726,0.2378 -0.24585,0.4787 -0.36019,0.7157 -1.79057,3.6788 -3.3042,7.3904 -4.54132,11.1342 -0.10495,0.3262 -0.19469,0.6502 -0.29507,0.9757 h 3.61476 c -0.6381,2.0693 -1.18274,4.1247 -1.63607,6.1665 h -6.87194 c -1.11235,5.01 -1.68258,9.9395 -1.68258,14.7841 0,0.089 0.005,0.1793 0.006,0.2688 h -3.55172 c 0.0252,6.0623 0.90743,12.2059 2.6417,18.4298 h 5.69785 c 0.2992,1.0738 0.61629,2.1492 0.96634,3.2278 1.39447,4.2802 3.26679,8.6903 5.5945,13.224 h -2.14613 c 1.58502,3.0871 3.37519,6.2298 5.39296,9.4345 h 7.81347 c -1.81093,-3.1485 -3.41942,-6.2932 -4.8488,-9.4345 h 2.14612 c -2.50031,-5.495 -4.41879,-10.9789 -5.75158,-16.4518 h -5.69785 c -1.49946,-6.1572 -2.2656,-12.3006 -2.28719,-18.4298 h 3.55172 c -3.2e-4,-0.089 -0.005,-0.1792 -0.005,-0.2688 0,-4.9063 0.48435,-9.8347 1.43143,-14.7841 h 6.87194 c 0.3926,-2.0517 0.86832,-4.1074 1.42368,-6.1665 h -3.61477 c 0.12284,-0.4555 0.23713,-0.9105 0.36794,-1.3663 1.04175,-3.6463 2.32805,-7.2601 3.85816,-10.8412 0.0881,-0.2037 0.18963,-0.4133 0.28009,-0.6181 h -4.06797 c 1.5144,-3.4272 3.34979,-6.9938 5.53093,-10.711 z m 114.7098,0 c 2.10378,3.6283 3.91038,7.197 5.44308,10.711 h 4.06796 c 0.10385,0.2381 0.21813,0.4781 0.31936,0.7157 1.62778,3.7439 2.94662,7.3578 3.95584,10.8412 0.12199,0.4223 0.22817,0.8459 0.34313,1.2687 h 3.61476 c 0.55714,2.0492 1.0333,4.1046 1.42524,6.1665 h -6.87193 c 0.92999,4.8926 1.4056,9.8201 1.4056,14.7841 0,0.09 -0.004,0.179 -0.005,0.2688 h -3.55121 c -0.0127,3.7177 -0.28486,7.4046 -0.82527,11.0603 -0.37208,2.517 -0.85643,4.9702 -1.43454,7.3695 h 5.69785 c -0.28178,1.1695 -0.5788,2.3302 -0.90951,3.4717 -1.2808,4.3321 -2.91598,8.6588 -4.88342,12.9801 h -2.14612 c -1.43316,3.1477 -3.03748,6.2926 -4.83485,9.4345 h 7.81348 c 2.04377,-3.1732 3.85559,-6.3169 5.46065,-9.4345 h 2.14612 c 2.28111,-4.4309 4.13179,-8.8076 5.52679,-13.1264 0.3578,-1.1121 0.6803,-2.2197 0.98495,-3.3254 h -5.69784 c 1.72119,-6.2461 2.59799,-12.3899 2.6231,-18.4298 h 3.5512 c 3.7e-4,-0.089 0.006,-0.1794 0.006,-0.2688 0,-4.8446 -0.57022,-9.7741 -1.68258,-14.7841 h 6.87193 c -0.45335,-2.0418 -0.99798,-4.0972 -1.63608,-6.1665 h -3.61476 c -0.10038,-0.3255 -0.19012,-0.6495 -0.29507,-0.9757 -1.24614,-3.8941 -2.87652,-7.8453 -4.86792,-11.8499 h -4.06797 c -1.75446,-3.5281 -3.78657,-7.0972 -6.11953,-10.711 z m -73.86991,21.1936 1.75286,2.343 h 3.61477 l 4.61367,6.1665 h -6.87193 l 11.26133,15.0529 h -3.55173 l 1.95441,2.6122 -11.91762,15.8176 h 5.69784 l -9.56944,12.7011 h 10.40143 l 9.25008,-12.7011 h -5.69784 l 6.71845,-9.2252 6.73913,9.2252 h 5.69784 l 9.2785,12.7011 h 10.40144 l -9.56945,-12.7011 h -5.69784 l -11.9171,-15.8176 1.9544,-2.6122 h 3.55172 l 11.26133,-15.0529 h 6.87193 l 4.61367,-6.1665 h -3.61476 l 1.75286,-2.343 h -10.10842 l -1.70688,2.343 h 3.61477 l -4.49172,6.1665 h -6.87193 l -8.20777,11.2681 -8.26306,-11.2681 h 6.87194 l -4.52221,-6.1665 h -3.61477 l -1.71824,-2.343 z" />
    <path
       id="path39933"
       style="font-size:100.011px;font-family:Hack;-inkscape-font-specification:Hack;fill:#7a2648;fill-opacity:1;stroke-width:8.33425"
       d="m 266.62793,1051.6041 c -5.82743,0 -10.12503,1.416 -12.89224,4.2484 -1.5929,1.6497 -2.71868,3.8391 -3.38377,6.5603 h 4.06797 c -0.47673,1.9505 -0.7183,4.1725 -0.7183,6.6735 v 3.809 h -14.60118 v 2.3431 h 3.61477 v 4.64 h 14.60117 v 1.5265 h -6.87193 v 15.0528 h -3.55172 v 18.4299 h 5.69784 v 12.7011 h 8.9855 v -12.7011 h -5.69784 v -18.4299 h 3.55172 v -15.0528 h 6.87193 v -1.5265 h 18.80092 v -4.64 H 281.488 v -2.3431 h -18.80092 v -4.8343 c 0,-2.4191 0.33555,-4.2965 0.99632,-5.6482 h -4.06796 c 0.25513,-0.5219 0.55427,-0.9726 0.90795,-1.3353 1.26964,-1.3348 3.50012,-2.002 6.69055,-2.002 h 10.20609 v -7.4714 z m 49.51687,0.098 c -2.34671,3.6572 -4.36688,7.225 -6.08593,10.711 h 4.06797 c -0.11726,0.2378 -0.24585,0.4787 -0.36019,0.7157 -1.79057,3.6788 -3.3042,7.3904 -4.54132,11.1342 -0.10495,0.3262 -0.19469,0.6502 -0.29507,0.9757 h 3.61476 c -0.6381,2.0693 -1.18274,4.1247 -1.63607,6.1665 h -6.87194 c -1.11235,5.01 -1.68258,9.9395 -1.68258,14.7841 0,0.089 0.005,0.1793 0.006,0.2688 h -3.55172 c 0.0252,6.0623 0.90743,12.2059 2.6417,18.4298 h 5.69785 c 0.2992,1.0738 0.61629,2.1492 0.96634,3.2278 1.39447,4.2802 3.26679,8.6903 5.5945,13.224 h -2.14613 c 1.58502,3.0871 3.37519,6.2298 5.39296,9.4345 h 7.81347 c -1.81093,-3.1485 -3.41942,-6.2932 -4.8488,-9.4345 h 2.14612 c -2.50031,-5.495 -4.41879,-10.9789 -5.75158,-16.4518 h -5.69785 c -1.49946,-6.1572 -2.2656,-12.3006 -2.28719,-18.4298 h 3.55172 c -3.2e-4,-0.089 -0.005,-0.1792 -0.005,-0.2688 0,-4.9063 0.48435,-9.8347 1.43143,-14.7841 h 6.87194 c 0.3926,-2.0517 0.86832,-4.1074 1.42368,-6.1665 h -3.61477 c 0.12284,-0.4555 0.23713,-0.9105 0.36794,-1.3663 1.04175,-3.6463 2.32805,-7.2601 3.85816,-10.8412 0.0881,-0.2037 0.18963,-0.4133 0.28009,-0.6181 h -4.06797 c 1.5144,-3.4272 3.34979,-6.9938 5.53093,-10.711 z m 114.7098,0 c 2.10378,3.6283 3.91038,7.197 5.44308,10.711 h 4.06796 c 0.10385,0.2381 0.21813,0.4781 0.31936,0.7157 1.62778,3.7439 2.94662,7.3578 3.95584,10.8412 0.12199,0.4223 0.22817,0.8459 0.34313,1.2687 h 3.61476 c 0.55714,2.0492 1.0333,4.1046 1.42524,6.1665 h -6.87193 c 0.92999,4.8926 1.4056,9.8201 1.4056,14.7841 0,0.09 -0.004,0.179 -0.005,0.2688 h -3.55121 c -0.0127,3.7177 -0.28486,7.4046 -0.82527,11.0603 -0.37208,2.517 -0.85643,4.9702 -1.43454,7.3695 h 5.69785 c -0.28178,1.1695 -0.5788,2.3302 -0.90951,3.4717 -1.2808,4.3321 -2.91598,8.6588 -4.88342,12.9801 h -2.14612 c -1.43316,3.1477 -3.03748,6.2926 -4.83485,9.4345 h 7.81348 c 2.04377,-3.1732 3.85559,-6.3169 5.46065,-9.4345 h 2.14612 c 2.28111,-4.4309 4.13179,-8.8076 5.52679,-13.1264 0.3578,-1.1121 0.6803,-2.2197 0.98495,-3.3254 h -5.69784 c 1.72119,-6.2461 2.59799,-12.3899 2.6231,-18.4298 h 3.5512 c 3.7e-4,-0.089 0.006,-0.1794 0.006,-0.2688 0,-4.8446 -0.57022,-9.7741 -1.68258,-14.7841 h 6.87193 c -0.45335,-2.0418 -0.99798,-4.0972 -1.63608,-6.1665 h -3.61476 c -0.10038,-0.3255 -0.19012,-0.6495 -0.29507,-0.9757 -1.24614,-3.8941 -2.87652,-7.8453 -4.86792,-11.8499 h -4.06797 c -1.75446,-3.5281 -3.78657,-7.0972 -6.11953,-10.711 z m -73.86991,21.1936 1.75286,2.343 h 3.61477 l 4.61367,6.1665 h -6.87193 l 11.26133,15.0529 h -3.55173 l 1.95441,2.6122 -11.91762,15.8176 h 5.69784 l -9.56944,12.7011 h 10.40143 l 9.25008,-12.7011 h -5.69784 l 6.71845,-9.2252 6.73913,9.2252 h 5.69784 l 9.2785,12.7011 h 10.40144 l -9.56945,-12.7011 h -5.69784 l -11.9171,-15.8176 1.9544,-2.6122 h 3.55172 l 11.26133,-15.0529 h 6.87193 l 4.61367,-6.1665 h -3.61476 l 1.75286,-2.343 h -10.10842 l -1.70688,2.343 h 3.61477 l -4.49172,6.1665 h -6.87193 l -8.20777,11.2681 -8.26306,-11.2681 h 6.87194 l -4.52221,-6.1665 h -3.61477 l -1.71824,-2.343 z" />
    <path
       id="path33361"
       style="font-size:100.011px;font-family:Hack;-inkscape-font-specification:Hack;fill:#add8e6;stroke-width:8.33425"
       d="m 274.03631,1051.6041 c -5.82743,0 -10.12503,1.416 -12.89224,4.2484 -1.5929,1.6497 -2.71868,3.8391 -3.38377,6.5603 h 4.06797 c -0.47673,1.9505 -0.7183,4.1725 -0.7183,6.6735 v 3.809 h -14.60118 v 2.3431 h 3.61477 v 4.64 h 14.60117 v 1.5265 h -6.87193 v 15.0528 h -3.55172 v 18.4299 h 5.69784 v 12.7011 h 8.9855 v -12.7011 h -5.69784 v -18.4299 h 3.55172 v -15.0528 h 6.87193 v -1.5265 h 18.80092 v -4.64 h -3.61477 v -2.3431 h -18.80092 v -4.8343 c 0,-2.4191 0.33555,-4.2965 0.99632,-5.6482 h -4.06796 c 0.25513,-0.5219 0.55427,-0.9726 0.90795,-1.3353 1.26964,-1.3348 3.50012,-2.002 6.69055,-2.002 h 10.20609 v -7.4714 z m 49.51687,0.098 c -2.34671,3.6572 -4.36688,7.225 -6.08593,10.711 h 4.06797 c -0.11726,0.2378 -0.24585,0.4787 -0.36019,0.7157 -1.79057,3.6788 -3.3042,7.3903 -4.54132,11.1342 -0.10495,0.3262 -0.19469,0.6501 -0.29507,0.9757 h 3.61476 c -0.6381,2.0693 -1.18274,4.1247 -1.63607,6.1665 h -6.87194 c -1.11235,5.01 -1.68258,9.9395 -1.68258,14.7841 0,0.089 0.005,0.1793 0.006,0.2687 h -3.55172 c 0.0252,6.0623 0.90743,12.2059 2.6417,18.4299 h 5.69785 c 0.2992,1.0738 0.61629,2.1492 0.96634,3.2277 1.39447,4.2803 3.26679,8.6904 5.5945,13.224 h -2.14613 c 1.58502,3.0871 3.37519,6.2299 5.39296,9.4346 h 7.81347 c -1.81093,-3.1486 -3.41942,-6.2933 -4.8488,-9.4346 h 2.14612 c -2.50031,-5.4949 -4.41879,-10.9789 -5.75158,-16.4517 h -5.69785 c -1.49946,-6.1572 -2.2656,-12.3006 -2.28719,-18.4299 h 3.55172 c -3.2e-4,-0.09 -0.005,-0.1791 -0.005,-0.2687 0,-4.9063 0.48435,-9.8347 1.43143,-14.7841 h 6.87194 c 0.3926,-2.0518 0.86832,-4.1074 1.42368,-6.1665 h -3.61477 c 0.12284,-0.4555 0.23713,-0.9105 0.36794,-1.3664 1.04175,-3.6462 2.32805,-7.26 3.85816,-10.8412 0.0881,-0.2037 0.18963,-0.4133 0.28009,-0.618 h -4.06797 c 1.5144,-3.4273 3.34979,-6.9938 5.53093,-10.711 z m 114.7098,0 c 2.10378,3.6282 3.91038,7.197 5.44308,10.711 h 4.06796 c 0.10385,0.2381 0.21813,0.4781 0.31936,0.7157 1.62778,3.7439 2.94662,7.3578 3.95584,10.8412 0.12199,0.4223 0.22817,0.8458 0.34313,1.2687 h 3.61476 c 0.55714,2.0492 1.0333,4.1046 1.42524,6.1665 h -6.87193 c 0.92999,4.8926 1.4056,9.8201 1.4056,14.7841 0,0.09 -0.004,0.179 -0.005,0.2687 h -3.55121 c -0.0127,3.7178 -0.28486,7.4047 -0.82527,11.0603 -0.37208,2.5171 -0.85643,4.9702 -1.43454,7.3696 h 5.69785 c -0.28178,1.1695 -0.5788,2.3302 -0.90951,3.4716 -1.2808,4.3321 -2.91598,8.6589 -4.88342,12.9801 h -2.14612 c -1.43316,3.1478 -3.03748,6.2926 -4.83485,9.4346 h 7.81348 c 2.04377,-3.1733 3.85559,-6.3169 5.46065,-9.4346 h 2.14612 c 2.28111,-4.4309 4.13179,-8.8075 5.52679,-13.1263 0.3578,-1.1121 0.6803,-2.2198 0.98495,-3.3254 h -5.69784 c 1.72119,-6.2462 2.59799,-12.39 2.6231,-18.4299 h 3.5512 c 3.7e-4,-0.089 0.006,-0.1793 0.006,-0.2687 0,-4.8446 -0.57022,-9.7741 -1.68258,-14.7841 h 6.87193 c -0.45335,-2.0418 -0.99798,-4.0972 -1.63608,-6.1665 h -3.61476 c -0.10038,-0.3256 -0.19012,-0.6495 -0.29507,-0.9757 -1.24614,-3.8941 -2.87652,-7.8454 -4.86792,-11.8499 h -4.06797 c -1.75446,-3.5281 -3.78657,-7.0972 -6.11953,-10.711 z m -73.86991,21.1935 1.75286,2.3431 h 3.61477 l 4.61367,6.1665 h -6.87193 l 11.26133,15.0528 h -3.55173 l 1.95441,2.6123 -11.91762,15.8176 h 5.69784 l -9.56944,12.7011 h 10.40143 l 9.25008,-12.7011 h -5.69784 l 6.71845,-9.2253 6.73913,9.2253 h 5.69784 l 9.2785,12.7011 h 10.40144 l -9.56945,-12.7011 h -5.69784 l -11.9171,-15.8176 1.9544,-2.6123 h 3.55172 l 11.26133,-15.0528 h 6.87193 l 4.61367,-6.1665 h -3.61476 l 1.75286,-2.3431 H 403.2646 l -1.70688,2.3431 h 3.61477 l -4.49172,6.1665 h -6.87193 l -8.20777,11.2681 -8.26306,-11.2681 h 6.87194 l -4.52221,-6.1665 h -3.61477 l -1.71824,-2.3431 z" />
    <path
       id="rect5481-0-1-9-5-5"
       style="fill:#1b1b1b;fill-opacity:1;stroke-width:0.06139"
       d="m 695.84906,1043.3555 a 11.288901,11.28886 0 0 0 -11.28897,11.2891 v 22.5777 22.5774 a 11.288901,11.28886 0 0 0 11.28897,11.2891 h 45.15574 a 11.288901,11.28886 0 0 0 11.2886,-11.2891 v -22.5774 -22.5777 a 11.288901,11.28886 0 0 0 -11.2886,-11.2891 z"
       inkscape:export-filename="experimental\icon-256.png"
       inkscape:export-xdpi="96"
       inkscape:export-ydpi="96" />
    <path
       id="path41693-4"
       style="fill:#141414;fill-opacity:1;stroke-width:0.06139"
       d="m 686.96793,1047.6866 a 11.288901,11.28886 0 0 0 -2.40786,6.958 v 22.5777 22.5774 a 11.288901,11.28886 0 0 0 11.28897,11.2891 h 45.15577 a 11.288901,11.28886 0 0 0 8.32662,-3.6667 z" />
    <path
       id="path39931-1"
       style="font-size:100.011px;font-family:Hack;-inkscape-font-specification:Hack;fill:#6269cf;fill-opacity:1;stroke-width:2.08356"
       d="m 699.81238,1066.076 c -1.45686,0 -2.53126,0.3539 -3.22306,1.062 -0.39823,0.4125 -0.67967,0.9598 -0.84594,1.6401 h 1.01699 c -0.11918,0.4876 -0.17958,1.0431 -0.17958,1.6684 v 0.9522 h -3.65029 v 0.5858 h 0.90369 v 1.16 h 3.65029 v 0.3816 h -1.71798 v 3.7632 h -0.88793 v 4.6075 h 1.42446 v 3.1753 h 2.24638 v -3.1753 h -1.42446 v -4.6075 h 0.88793 v -3.7632 h 1.71798 v -0.3816 h 4.70023 v -1.16 h -0.9037 v -0.5858 h -4.70022 v -1.2085 c 0,-0.6048 0.0839,-1.0741 0.24908,-1.4121 h -1.01699 c 0.0638,-0.1305 0.13856,-0.2431 0.22698,-0.3338 0.31741,-0.3337 0.87503,-0.5005 1.67264,-0.5005 h 2.55152 v -1.8678 z m 12.37921,0.024 c -0.58667,0.9142 -1.09172,1.8062 -1.52148,2.6777 h 1.01699 c -0.0293,0.059 -0.0615,0.1197 -0.09,0.1789 -0.44765,0.9197 -0.82605,1.8476 -1.13533,2.7836 -0.0262,0.082 -0.0487,0.1625 -0.0738,0.2439 h 0.90369 c -0.15953,0.5173 -0.29569,1.0312 -0.40902,1.5416 h -1.71798 c -0.27809,1.2525 -0.42065,2.4849 -0.42065,3.696 0,0.022 10e-4,0.045 0.002,0.067 h -0.88793 c 0.006,1.5156 0.22686,3.0515 0.66043,4.6075 h 1.42446 c 0.0748,0.2684 0.15407,0.5373 0.24158,0.8069 0.34862,1.0701 0.8167,2.1726 1.39863,3.306 h -0.53653 c 0.39625,0.7718 0.84379,1.5575 1.34824,2.3587 h 1.95336 c -0.45273,-0.7872 -0.85485,-1.5733 -1.2122,-2.3587 h 0.53653 c -0.62507,-1.3737 -1.10469,-2.7447 -1.43789,-4.1129 h -1.42446 c -0.37487,-1.5393 -0.5664,-3.0752 -0.5718,-4.6075 h 0.88793 c -8e-5,-0.022 -10e-4,-0.045 -10e-4,-0.067 0,-1.2265 0.12109,-2.4586 0.35786,-3.696 h 1.71798 c 0.0982,-0.5129 0.21708,-1.0268 0.35592,-1.5416 h -0.90369 c 0.0307,-0.1139 0.0593,-0.2276 0.092,-0.3416 0.26044,-0.9115 0.58202,-1.815 0.96454,-2.7103 0.022,-0.051 0.0474,-0.1033 0.07,-0.1545 h -1.017 c 0.3786,-0.8568 0.83745,-1.7485 1.38274,-2.6777 z m 28.67745,0 c 0.52594,0.907 0.97759,1.7992 1.36077,2.6777 h 1.01699 c 0.026,0.06 0.0545,0.1195 0.0798,0.1789 0.40694,0.936 0.73665,1.8395 0.98896,2.7103 0.0305,0.1056 0.057,0.2115 0.0858,0.3172 h 0.90369 c 0.13929,0.5123 0.25833,1.0261 0.35631,1.5416 h -1.71798 c 0.2325,1.2232 0.3514,2.455 0.3514,3.696 0,0.023 -10e-4,0.045 -10e-4,0.067 h -0.8878 c -0.003,0.9295 -0.0712,1.8512 -0.20632,2.7651 -0.093,0.6293 -0.21411,1.2426 -0.35864,1.8424 h 1.42447 c -0.0705,0.2924 -0.1447,0.5825 -0.22738,0.8679 -0.3202,1.083 -0.729,2.1647 -1.22086,3.245 h -0.53653 c -0.35829,0.787 -0.75937,1.5732 -1.20871,2.3587 h 1.95337 c 0.51094,-0.7933 0.9639,-1.5793 1.36516,-2.3587 h 0.53653 c 0.57028,-1.1077 1.03295,-2.2019 1.3817,-3.2816 0.0894,-0.278 0.17008,-0.5549 0.24624,-0.8313 h -1.42446 c 0.4303,-1.5615 0.6495,-3.0975 0.65577,-4.6075 h 0.8878 c 10e-5,-0.022 0.002,-0.045 0.002,-0.067 0,-1.2111 -0.14255,-2.4435 -0.42064,-3.696 h 1.71798 c -0.11334,-0.5104 -0.24949,-1.0243 -0.40902,-1.5416 h -0.90369 c -0.0251,-0.081 -0.0475,-0.1624 -0.0738,-0.2439 -0.31153,-0.9736 -0.71913,-1.9614 -1.21698,-2.9625 h -1.01699 c -0.43861,-0.882 -0.94664,-1.7743 -1.52988,-2.6777 z m -18.46748,5.2983 0.43822,0.5858 h 0.90369 l 1.15342,1.5416 h -1.71798 l 2.81533,3.7632 h -0.88793 l 0.4886,0.6531 -2.97941,3.9544 h 1.42446 l -2.39235,3.1753 h 2.60035 l 2.31252,-3.1753 h -1.42446 l 1.67961,-2.3063 1.68479,2.3063 h 1.42446 l 2.31962,3.1753 h 2.60036 l -2.39236,-3.1753 h -1.42446 l -2.97928,-3.9544 0.4886,-0.6531 h 0.88793 l 2.81534,-3.7632 h 1.71798 l 1.15342,-1.5416 h -0.90369 l 0.43821,-0.5858 h -2.5271 l -0.42672,0.5858 h 0.90369 l -1.12293,1.5416 h -1.71798 l -2.05195,2.817 -2.06576,-2.817 h 1.71798 l -1.13055,-1.5416 h -0.90369 l -0.42956,-0.5858 z" />
    <path
       id="path39933-2"
       style="font-size:100.011px;font-family:Hack;-inkscape-font-specification:Hack;fill:#7a2648;fill-opacity:1;stroke-width:2.08356"
       d="m 696.37277,1066.076 c -1.45685,0 -2.53125,0.3539 -3.22306,1.062 -0.39822,0.4125 -0.67967,0.9598 -0.84594,1.6401 h 1.01699 c -0.11918,0.4876 -0.17957,1.0431 -0.17957,1.6684 v 0.9522 h -3.6503 v 0.5858 h 0.9037 v 1.16 h 3.65029 v 0.3816 h -1.71798 v 3.7632 h -0.88793 v 4.6075 h 1.42446 v 3.1753 h 2.24637 v -3.1753 h -1.42446 v -4.6075 h 0.88793 v -3.7632 h 1.71798 v -0.3816 h 4.70023 v -1.16 h -0.90369 v -0.5858 h -4.70023 v -1.2085 c 0,-0.6048 0.0839,-1.0741 0.24908,-1.4121 h -1.01699 c 0.0638,-0.1305 0.13857,-0.2431 0.22699,-0.3338 0.31741,-0.3337 0.87503,-0.5005 1.67264,-0.5005 h 2.55152 v -1.8678 z m 12.37922,0.024 c -0.58668,0.9142 -1.09172,1.8062 -1.52148,2.6777 h 1.01699 c -0.0293,0.059 -0.0615,0.1197 -0.0901,0.1789 -0.44764,0.9197 -0.82605,1.8476 -1.13533,2.7836 -0.0262,0.082 -0.0487,0.1625 -0.0738,0.2439 h 0.90369 c -0.15952,0.5173 -0.29568,1.0312 -0.40901,1.5416 h -1.71799 c -0.27809,1.2525 -0.42064,2.4849 -0.42064,3.696 0,0.022 0.001,0.045 0.001,0.067 h -0.88793 c 0.006,1.5156 0.22685,3.0515 0.66042,4.6075 h 1.42446 c 0.0748,0.2684 0.15408,0.5373 0.24159,0.8069 0.34862,1.0701 0.8167,2.1726 1.39862,3.306 h -0.53653 c 0.39626,0.7718 0.8438,1.5575 1.34824,2.3587 h 1.95337 c -0.45273,-0.7872 -0.85486,-1.5733 -1.2122,-2.3587 h 0.53653 c -0.62508,-1.3737 -1.1047,-2.7447 -1.4379,-4.1129 h -1.42446 c -0.37486,-1.5393 -0.5664,-3.0752 -0.5718,-4.6075 h 0.88793 c -8e-5,-0.022 -10e-4,-0.045 -10e-4,-0.067 0,-1.2265 0.12109,-2.4586 0.35786,-3.696 h 1.71799 c 0.0982,-0.5129 0.21708,-1.0268 0.35592,-1.5416 h -0.9037 c 0.0307,-0.1139 0.0593,-0.2276 0.092,-0.3416 0.26044,-0.9115 0.58201,-1.815 0.96454,-2.7103 0.022,-0.051 0.0474,-0.1033 0.07,-0.1545 h -1.01699 c 0.3786,-0.8568 0.83745,-1.7485 1.38273,-2.6777 z m 28.67745,0 c 0.52594,0.907 0.97759,1.7992 1.36077,2.6777 h 1.01699 c 0.026,0.06 0.0545,0.1195 0.0798,0.1789 0.40694,0.936 0.73665,1.8395 0.98896,2.7103 0.0305,0.1056 0.057,0.2115 0.0858,0.3172 h 0.90369 c 0.13928,0.5123 0.25832,1.0261 0.35631,1.5416 h -1.71798 c 0.23249,1.2232 0.3514,2.455 0.3514,3.696 0,0.023 -10e-4,0.045 -10e-4,0.067 h -0.88781 c -0.003,0.9295 -0.0712,1.8512 -0.20631,2.7651 -0.093,0.6293 -0.21411,1.2426 -0.35864,1.8424 h 1.42446 c -0.0704,0.2924 -0.1447,0.5825 -0.22737,0.8679 -0.3202,1.083 -0.729,2.1647 -1.22086,3.245 h -0.53653 c -0.35829,0.787 -0.75937,1.5732 -1.20871,2.3587 h 1.95337 c 0.51094,-0.7933 0.9639,-1.5793 1.36516,-2.3587 h 0.53653 c 0.57028,-1.1077 1.03295,-2.2019 1.3817,-3.2816 0.0895,-0.278 0.17007,-0.5549 0.24623,-0.8313 h -1.42446 c 0.4303,-1.5615 0.6495,-3.0975 0.65578,-4.6075 h 0.8878 c 9e-5,-0.022 10e-4,-0.045 10e-4,-0.067 0,-1.2111 -0.14256,-2.4435 -0.42065,-3.696 h 1.71799 c -0.11334,-0.5104 -0.2495,-1.0243 -0.40902,-1.5416 h -0.90342 c -0.0251,-0.081 -0.0475,-0.1624 -0.0738,-0.2439 -0.31154,-0.9736 -0.71913,-1.9614 -1.21698,-2.9625 h -1.01699 c -0.43862,-0.882 -0.94664,-1.7743 -1.52988,-2.6777 z m -18.46748,5.2983 0.43822,0.5858 h 0.90369 l 1.15342,1.5416 h -1.71799 l 2.81533,3.7632 h -0.88793 l 0.48861,0.6531 -2.97941,3.9544 h 1.42446 l -2.39236,3.1753 h 2.60036 l 2.31252,-3.1753 h -1.42446 l 1.67961,-2.3063 1.68478,2.3063 h 1.42446 l 2.31963,3.1753 h 2.60036 l -2.39237,-3.1753 h -1.42446 l -2.97927,-3.9544 0.4886,-0.6531 h 0.88793 l 2.81533,-3.7632 h 1.71798 l 1.15342,-1.5416 h -0.90369 l 0.43822,-0.5858 h -2.52711 l -0.42672,0.5858 h 0.90369 l -1.12293,1.5416 h -1.71798 l -2.05194,2.817 -2.06577,-2.817 h 1.71799 l -1.13055,-1.5416 h -0.90369 l -0.42956,-0.5858 z" />
    <path
       id="path33361-5"
       style="font-size:100.011px;font-family:Hack;-inkscape-font-specification:Hack;fill:#add8e6;stroke-width:2.08356"
       d="m 698.22487,1066.076 c -1.45686,0 -2.53126,0.3539 -3.22306,1.062 -0.39823,0.4125 -0.67967,0.9598 -0.84594,1.6401 h 1.01699 c -0.11918,0.4876 -0.17958,1.0431 -0.17958,1.6684 v 0.9522 h -3.65029 v 0.5858 h 0.90369 v 1.16 h 3.65029 v 0.3816 h -1.71798 v 3.7632 h -0.88793 v 4.6075 h 1.42446 v 3.1753 h 2.24638 v -3.1753 h -1.42446 v -4.6075 h 0.88793 v -3.7632 h 1.71798 v -0.3816 h 4.70023 v -1.16 h -0.90369 v -0.5858 h -4.70023 v -1.2085 c 0,-0.6048 0.0839,-1.0741 0.24908,-1.4121 h -1.01699 c 0.0638,-0.1305 0.13856,-0.2431 0.22698,-0.3338 0.31741,-0.3337 0.87503,-0.5005 1.67264,-0.5005 h 2.55152 v -1.8678 z m 12.37921,0.024 c -0.58667,0.9142 -1.09172,1.8062 -1.52148,2.6777 h 1.01699 c -0.0293,0.059 -0.0615,0.1197 -0.09,0.1789 -0.44765,0.9197 -0.82605,1.8476 -1.13533,2.7836 -0.0262,0.082 -0.0487,0.1625 -0.0738,0.2439 h 0.90369 c -0.15953,0.5173 -0.29569,1.0312 -0.40902,1.5416 h -1.71798 c -0.27809,1.2525 -0.42065,2.4849 -0.42065,3.696 0,0.022 10e-4,0.045 10e-4,0.067 h -0.88793 c 0.006,1.5156 0.22686,3.0515 0.66043,4.6075 h 1.42446 c 0.0748,0.2684 0.15407,0.5373 0.24158,0.8069 0.34862,1.0701 0.8167,2.1726 1.39863,3.306 h -0.53653 c 0.39625,0.7718 0.84379,1.5575 1.34824,2.3587 h 1.95336 c -0.45273,-0.7872 -0.85485,-1.5733 -1.2122,-2.3587 h 0.53653 c -0.62507,-1.3737 -1.10469,-2.7447 -1.43789,-4.1129 h -1.42446 c -0.37487,-1.5393 -0.5664,-3.0752 -0.5718,-4.6075 h 0.88793 c -8e-5,-0.022 -0.001,-0.045 -0.001,-0.067 0,-1.2265 0.12109,-2.4586 0.35786,-3.696 h 1.71798 c 0.0981,-0.5129 0.21708,-1.0268 0.35592,-1.5416 h -0.90369 c 0.0307,-0.1139 0.0593,-0.2276 0.092,-0.3416 0.26044,-0.9115 0.58202,-1.815 0.96454,-2.7103 0.022,-0.051 0.0474,-0.1033 0.07,-0.1545 h -1.017 c 0.3786,-0.8568 0.83745,-1.7485 1.38274,-2.6777 z m 28.67745,0 c 0.52595,0.907 0.9776,1.7992 1.36077,2.6777 h 1.01699 c 0.026,0.06 0.0545,0.1195 0.0798,0.1789 0.40694,0.936 0.73665,1.8395 0.98896,2.7103 0.0305,0.1056 0.057,0.2115 0.0858,0.3172 h 0.90369 c 0.13929,0.5123 0.25833,1.0261 0.35631,1.5416 h -1.71798 c 0.2325,1.2232 0.3514,2.455 0.3514,3.696 0,0.023 -10e-4,0.045 -10e-4,0.067 h -0.8878 c -0.003,0.9295 -0.0712,1.8512 -0.20632,2.7651 -0.093,0.6293 -0.21411,1.2426 -0.35864,1.8424 h 1.42447 c -0.0704,0.2924 -0.1447,0.5825 -0.22738,0.8679 -0.3202,1.083 -0.729,2.1647 -1.22086,3.245 h -0.53652 c -0.35829,0.787 -0.75937,1.5732 -1.20872,2.3587 h 1.95337 c 0.51094,-0.7933 0.9639,-1.5793 1.36516,-2.3587 h 0.53653 c 0.57028,-1.1077 1.03295,-2.2019 1.3817,-3.2816 0.0895,-0.278 0.17008,-0.5549 0.24624,-0.8313 h -1.42446 c 0.4303,-1.5615 0.6495,-3.0975 0.65577,-4.6075 h 0.8878 c 1e-4,-0.022 0.001,-0.045 0.001,-0.067 0,-1.2111 -0.14255,-2.4435 -0.42064,-3.696 h 1.71798 c -0.11334,-0.5104 -0.24949,-1.0243 -0.40902,-1.5416 h -0.90369 c -0.0251,-0.081 -0.0475,-0.1624 -0.0738,-0.2439 -0.31153,-0.9736 -0.71913,-1.9614 -1.21698,-2.9625 h -1.01699 c -0.43861,-0.882 -0.94664,-1.7743 -1.52988,-2.6777 z m -18.46747,5.2983 0.43821,0.5858 h 0.90369 l 1.15342,1.5416 h -1.71798 l 2.81533,3.7632 h -0.88793 l 0.4886,0.6531 -2.9794,3.9544 h 1.42445 l -2.39235,3.1753 h 2.60035 l 2.31252,-3.1753 h -1.42446 l 1.67961,-2.3063 1.68479,2.3063 h 1.42446 l 2.31962,3.1753 h 2.60036 l -2.39236,-3.1753 h -1.42446 l -2.97928,-3.9544 0.4886,-0.6531 h 0.88793 l 2.81534,-3.7632 h 1.71798 l 1.15342,-1.5416 h -0.90369 l 0.43821,-0.5858 h -2.5271 l -0.42672,0.5858 h 0.90369 l -1.12293,1.5416 H 728.168 l -2.05195,2.817 -2.06576,-2.817 h 1.71798 l -1.13055,-1.5416 h -0.90369 l -0.42956,-0.5858 z" />
    <path
       id="path19449"
       style="stroke-width:0.677857"
       d="m 243.44763,-1006.0071 a 42.751197,42.659271 0 0 0 -42.75137,42.66005 v 85.31869 85.31737 a 42.751197,42.659271 0 0 0 42.75137,42.66001 h 85.50273 85.50274 a 42.751197,42.659271 0 0 0 42.75004,-42.66001 v -85.31737 -85.31869 a 42.751197,42.659271 0 0 0 -42.75004,-42.66005 h -85.50274 z" />
    <text
       xml:space="preserve"
       style="font-style:normal;font-variant:normal;font-weight:normal;font-stretch:normal;font-size:3.175px;font-family:Hack;-inkscape-font-specification:Hack;fill:#0b0036;fill-opacity:0.695853;stroke:#ffffff;stroke-width:0.264583"
       x="1043.6576"
       y="-525.0824"
       id="text425"><tspan
         sodipodi:role="line"
         id="tspan423"
         style="stroke-width:0.264583"
         x="1043.6576"
         y="-525.0824" /></text>
    <text
       xml:space="preserve"
       style="font-style:normal;font-variant:normal;font-weight:normal;font-stretch:normal;font-size:59.6882px;font-family:Hack;-inkscape-font-specification:'Hack, Normal';font-variant-ligatures:normal;font-variant-caps:normal;font-variant-numeric:normal;font-variant-east-asian:normal;fill:#add8e6;fill-opacity:1;stroke:#ffffff;stroke-width:0.680564"
       x="202.52953"
       y="342.68933"
       id="text1130"><tspan
         sodipodi:role="line"
         id="tspan1128"
         style="stroke-width:0.680564"
         x="202.52953"
         y="342.68933">icon-1024</tspan></text>
    <text
       xml:space="preserve"
       style="font-style:normal;font-variant:normal;font-weight:normal;font-stretch:normal;font-size:59.6882px;font-family:Hack;-inkscape-font-specification:'Hack, Normal';font-variant-ligatures:normal;font-variant-caps:normal;font-variant-numeric:normal;font-variant-east-asian:normal;fill:#add8e6;fill-opacity:1;stroke:#ffffff;stroke-width:0.680564"
       x="195.02397"
       y="866.396"
       id="text1130-7"><tspan
         sodipodi:role="line"
         id="tspan1128-35"
         style="stroke-width:0.680564"
         x="195.02397"
         y="866.396">experimental icons</tspan></text>
    <text
       xml:space="preserve"
       style="font-style:normal;font-variant:normal;font-weight:normal;font-stretch:normal;font-size:59.6882px;font-family:Hack;-inkscape-font-specification:'Hack, Normal';font-variant-ligatures:normal;font-variant-caps:normal;font-variant-numeric:normal;font-variant-east-asian:normal;fill:#add8e6;fill-opacity:1;stroke:#ffffff;stroke-width:0.680564"
       x="559.47272"
       y="342.54776"
       id="text1130-4"><tspan
         sodipodi:role="line"
         id="tspan1128-3"
         style="stroke-width:0.680564"
         x="559.47272"
         y="342.54776">icon-256</tspan></text>
    <text
       xml:space="preserve"
       style="font-style:normal;font-variant:normal;font-weight:normal;font-stretch:normal;font-size:59.6882px;font-family:Hack;-inkscape-font-specification:'Hack, Normal';font-variant-ligatures:normal;font-variant-caps:normal;font-variant-numeric:normal;font-variant-east-asian:normal;fill:#add8e6;fill-opacity:1;stroke:#ffffff;stroke-width:0.680564"
       x="906.47809"
       y="344.04443"
       id="text1130-4-3"><tspan
         sodipodi:role="line"
         id="tspan1128-3-0"
         style="stroke-width:0.680564"
         x="906.47809"
         y="344.04443">icon-ios-touch-192</tspan></text>
    <text
       xml:space="preserve"
       style="font-style:normal;font-variant:normal;font-weight:normal;font-stretch:normal;font-size:59.6882px;font-family:Hack;-inkscape-font-specification:'Hack, Normal';font-variant-ligatures:normal;font-variant-caps:normal;font-variant-numeric:normal;font-variant-east-asian:normal;fill:#add8e6;fill-opacity:1;stroke:#ffffff;stroke-width:0.680564"
       x="1656.4122"
       y="347.16028"
       id="text1130-4-3-7"><tspan
         sodipodi:role="line"
         id="tspan1128-3-0-0"
         style="stroke-width:0.680564"
         x="1656.4122"
         y="347.16028">maskable-icon-x512</tspan></text>
    <path
       id="rect5481-0-1-7"
       style="fill:#1b1b1b;fill-opacity:1;stroke-width:0.0460425"
       d="m 1199.5398,534.56519 a 8.4666768,8.4666465 0 0 0 -8.4667,8.46682 v 16.93327 16.93309 a 8.4666768,8.4666465 0 0 0 8.4667,8.46682 h 33.8668 a 8.4666768,8.4666465 0 0 0 8.4665,-8.46682 v -16.93309 -16.93327 a 8.4666768,8.4666465 0 0 0 -8.4665,-8.46682 z"
       inkscape:export-filename=".\icon_ios_touch_192.png"
       inkscape:export-xdpi="96"
       inkscape:export-ydpi="96" />
    <text
       xml:space="preserve"
       style="font-style:normal;font-variant:normal;font-weight:normal;font-stretch:normal;font-size:17.4038px;font-family:Hack;-inkscape-font-specification:Hack;fill:#2cafe3;fill-opacity:1;stroke-width:1.45031"
       x="1217.3544"
       y="555.84821"
       id="text8441-0-7-2"
       transform="scale(0.98290502,1.0173923)"><tspan
         sodipodi:role="line"
         id="tspan8439-5-6-5"
         style="font-style:normal;font-variant:normal;font-weight:normal;font-stretch:normal;font-family:Hack;-inkscape-font-specification:Hack;fill:#2cafe3;fill-opacity:1;stroke-width:1.45031"
         x="1217.3544"
         y="555.84821"><tspan
   style="fill:#add8e6;fill-opacity:1;stroke-width:1.45031"
   id="tspan976-9">f</tspan>(<tspan
   style="font-style:normal;font-variant:normal;font-weight:normal;font-stretch:normal;font-family:Hack;-inkscape-font-specification:Hack;fill:#add8e6;fill-opacity:1;stroke-width:1.45031"
   id="tspan18111-6-2-3">x</tspan>)</tspan></text>
    <text
       xml:space="preserve"
       transform="scale(0.26458333)"
       id="text1477"
       style="font-style:normal;font-variant:normal;font-weight:normal;font-stretch:normal;font-size:87.7039px;font-family:Hack;-inkscape-font-specification:'Hack, Normal';font-variant-ligatures:normal;font-variant-caps:normal;font-variant-numeric:normal;font-variant-east-asian:normal;white-space:pre;shape-inside:url(#rect1479);display:inline;fill:#add8e6;fill-opacity:1;stroke:#ffffff" />
    <path
       id="rect5481-0-1-9-5-4"
       style="fill:#1b1b1b;fill-opacity:1;stroke-width:0.0460425"
       d="m 1213.2131,1055.5988 a 8.4666746,8.4666443 0 0 0 -8.4667,8.4669 v 16.9332 16.9331 a 8.4666746,8.4666443 0 0 0 8.4667,8.4668 h 33.8668 a 8.4666746,8.4666443 0 0 0 8.4665,-8.4668 v -16.9331 -16.9332 a 8.4666746,8.4666443 0 0 0 -8.4665,-8.4669 z"
       inkscape:export-filename="experimental\icon_ios_touch_192.png"
       inkscape:export-xdpi="96"
       inkscape:export-ydpi="96" />
    <path
       id="path41693-2"
       style="fill:#141414;fill-opacity:1;stroke-width:0.0460425"
       d="m 1206.5523,1058.8472 a 8.4666746,8.4666443 0 0 0 -1.8059,5.2185 v 16.9333 16.933 a 8.4666746,8.4666443 0 0 0 8.4667,8.4669 h 33.8668 a 8.4666746,8.4666443 0 0 0 6.245,-2.7501 z" />
    <path
       id="path39931-7"
       style="font-size:100.011px;font-family:Hack;-inkscape-font-specification:Hack;fill:#6269cf;fill-opacity:1;stroke-width:1.56267"
       d="m 1216.1857,1072.6392 c -1.0928,0 -1.8986,0.2655 -2.4173,0.7966 -0.2987,0.3093 -0.5098,0.7198 -0.6346,1.23 h 0.7628 c -0.089,0.3657 -0.1346,0.7824 -0.1346,1.2513 v 0.7142 h -2.7378 v 0.4393 h 0.6778 v 0.87 h 2.7377 v 0.2862 h -1.2884 v 2.8225 h -0.666 v 3.4555 h 1.0683 v 2.3815 h 1.6848 v -2.3815 h -1.0684 v -3.4555 h 0.666 v -2.8225 h 1.2885 v -0.2862 h 3.5251 v -0.87 h -0.6777 v -0.4393 h -3.5252 v -0.9064 c 0,-0.4536 0.063,-0.8056 0.1868,-1.0591 h -0.7627 c 0.047,-0.098 0.1043,-0.1823 0.1702,-0.2504 0.2381,-0.2502 0.6563,-0.3753 1.2546,-0.3753 h 1.9136 v -1.4009 z m 9.2844,0.018 c -0.4401,0.6857 -0.8189,1.3547 -1.1411,2.0083 h 0.7626 c -0.023,0.045 -0.046,0.09 -0.067,0.1342 -0.3357,0.6898 -0.6195,1.3857 -0.8514,2.0877 -0.02,0.061 -0.037,0.1219 -0.056,0.1829 h 0.6779 c -0.1197,0.388 -0.2218,0.7734 -0.3068,1.1562 h -1.2885 c -0.2086,0.9394 -0.3155,1.8637 -0.3155,2.772 0,0.017 0,0.034 0,0.05 h -0.666 c 0,1.1367 0.1701,2.2887 0.4953,3.4557 h 1.0684 c 0.056,0.2013 0.1149,0.4029 0.1812,0.6051 0.2614,0.8026 0.6125,1.6295 1.049,2.4795 h -0.4025 c 0.2972,0.5789 0.6329,1.1681 1.0112,1.769 h 1.465 c -0.3394,-0.5903 -0.6411,-1.18 -0.9092,-1.769 h 0.4025 c -0.4688,-1.0303 -0.8285,-2.0585 -1.0784,-3.0846 h -1.0684 c -0.2811,-1.1545 -0.4248,-2.3064 -0.4288,-3.4557 h 0.6659 c -10e-5,-0.017 0,-0.034 0,-0.05 0,-0.9199 0.091,-1.844 0.2685,-2.772 h 1.2884 c 0.073,-0.3847 0.1628,-0.7701 0.267,-1.1562 h -0.6778 c 0.023,-0.085 0.045,-0.1707 0.069,-0.2562 0.1953,-0.6837 0.4365,-1.3612 0.7234,-2.0327 0.017,-0.038 0.036,-0.077 0.052,-0.1159 h -0.7627 c 0.2839,-0.6426 0.6281,-1.3114 1.037,-2.0083 z m 21.508,0 c 0.3944,0.6803 0.7333,1.3494 1.0206,2.0083 h 0.7628 c 0.019,0.045 0.04,0.09 0.06,0.1342 0.3052,0.702 0.5525,1.3796 0.7417,2.0327 0.023,0.079 0.043,0.1586 0.064,0.2379 h 0.6778 c 0.1043,0.3842 0.1938,0.7696 0.2673,1.1562 h -1.2886 c 0.1744,0.9174 0.2636,1.8413 0.2636,2.772 0,0.017 0,0.034 0,0.05 h -0.6658 c 0,0.6971 -0.053,1.3884 -0.1548,2.0739 -0.07,0.4719 -0.1606,0.9319 -0.2689,1.3818 h 1.0683 c -0.053,0.2192 -0.109,0.4369 -0.1706,0.6509 -0.2401,0.8122 -0.5467,1.6235 -0.9156,2.4337 h -0.4024 c -0.2687,0.5902 -0.5695,1.1799 -0.9066,1.769 h 1.4651 c 0.3832,-0.595 0.7229,-1.1844 1.0238,-1.769 h 0.4024 c 0.4277,-0.8307 0.7748,-1.6514 1.0363,-2.4611 0.068,-0.2086 0.1276,-0.4162 0.1847,-0.6235 h -1.0683 c 0.3227,-1.1712 0.4871,-2.3232 0.4918,-3.4557 h 0.6658 c 2e-4,-0.017 0,-0.034 0,-0.05 0,-0.9083 -0.1066,-1.8326 -0.3154,-2.772 h 1.2885 c -0.085,-0.3828 -0.1872,-0.7682 -0.3069,-1.1562 h -0.6776 c -0.019,-0.061 -0.036,-0.1218 -0.056,-0.1829 -0.2337,-0.7302 -0.5393,-1.471 -0.9127,-2.2219 h -0.7627 c -0.3291,-0.6615 -0.7101,-1.3307 -1.1474,-2.0083 z m -13.8505,3.9738 0.3286,0.4393 h 0.6777 l 0.8651,1.1562 h -1.2885 l 2.1116,2.8224 h -0.666 l 0.3665,0.4898 -2.2346,2.9658 h 1.0684 l -1.7943,2.3815 h 1.9502 l 1.7344,-2.3815 h -1.0683 l 1.2596,-1.7297 1.2637,1.7297 h 1.0683 l 1.7397,2.3815 h 1.9502 l -1.7942,-2.3815 h -1.0683 l -2.2345,-2.9658 0.3665,-0.4898 h 0.6659 l 2.1116,-2.8224 h 1.2884 l 0.8651,-1.1562 h -0.6779 l 0.3288,-0.4393 h -1.8953 l -0.3201,0.4393 h 0.6778 l -0.8422,1.1562 h -1.2886 l -1.5389,2.1128 -1.5493,-2.1128 h 1.2885 l -0.848,-1.1562 h -0.6777 l -0.3222,-0.4393 z" />
    <path
       id="path39933-4"
       style="font-size:100.011px;font-family:Hack;-inkscape-font-specification:Hack;fill:#7a2648;fill-opacity:1;stroke-width:1.56267"
       d="m 1213.6059,1072.6392 c -1.0926,0 -1.8984,0.2655 -2.4173,0.7966 -0.2987,0.3093 -0.5098,0.7198 -0.6344,1.23 h 0.7627 c -0.089,0.3657 -0.1347,0.7824 -0.1347,1.2513 v 0.7142 h -2.7377 v 0.4393 h 0.6778 v 0.87 h 2.7377 v 0.2862 h -1.2885 v 2.8225 h -0.6659 v 3.4555 h 1.0684 v 2.3815 h 1.6847 v -2.3815 h -1.0683 v -3.4555 h 0.6659 v -2.8225 h 1.2884 v -0.2862 h 3.5253 v -0.87 h -0.6779 v -0.4393 h -3.525 v -0.9064 c 0,-0.4536 0.063,-0.8056 0.1867,-1.0591 h -0.7627 c 0.047,-0.098 0.1042,-0.1823 0.1703,-0.2504 0.2379,-0.2502 0.6562,-0.3753 1.2544,-0.3753 h 1.9137 v -1.4009 z m 9.2844,0.018 c -0.44,0.6857 -0.8187,1.3547 -1.1411,2.0083 h 0.7628 c -0.022,0.045 -0.046,0.09 -0.068,0.1342 -0.3357,0.6898 -0.6195,1.3857 -0.8514,2.0877 -0.02,0.061 -0.037,0.1219 -0.056,0.1829 h 0.6777 c -0.1196,0.388 -0.2218,0.7734 -0.3068,1.1562 h -1.2884 c -0.2086,0.9394 -0.3155,1.8637 -0.3155,2.772 0,0.017 0,0.034 0,0.05 h -0.6658 c 0,1.1367 0.1701,2.2887 0.4953,3.4557 h 1.0683 c 0.056,0.2013 0.115,0.4029 0.1812,0.6051 0.2615,0.8026 0.6125,1.6295 1.0489,2.4795 h -0.4024 c 0.2973,0.5789 0.6329,1.1681 1.0112,1.769 h 1.465 c -0.3395,-0.5903 -0.641,-1.18 -0.9091,-1.769 h 0.4024 c -0.4688,-1.0303 -0.8285,-2.0585 -1.0784,-3.0846 h -1.0684 c -0.2811,-1.1545 -0.4247,-2.3064 -0.4288,-3.4557 h 0.666 c -10e-5,-0.017 0,-0.034 0,-0.05 0,-0.9199 0.091,-1.844 0.2683,-2.772 h 1.2885 c 0.073,-0.3847 0.1629,-0.7701 0.267,-1.1562 h -0.6779 c 0.023,-0.085 0.045,-0.1707 0.069,-0.2562 0.1954,-0.6837 0.4366,-1.3612 0.7234,-2.0327 0.017,-0.038 0.036,-0.077 0.052,-0.1159 h -0.7627 c 0.284,-0.6426 0.628,-1.3114 1.037,-2.0083 z m 21.5081,0 c 0.3945,0.6803 0.7332,1.3494 1.0206,2.0083 h 0.7628 c 0.019,0.045 0.04,0.09 0.06,0.1342 0.3052,0.702 0.5526,1.3796 0.7417,2.0327 0.023,0.079 0.043,0.1586 0.064,0.2379 h 0.6778 c 0.1043,0.3842 0.1937,0.7696 0.2673,1.1562 h -1.2886 c 0.1744,0.9174 0.2636,1.8413 0.2636,2.772 0,0.017 0,0.034 0,0.05 h -0.6659 c 0,0.6971 -0.053,1.3884 -0.1547,2.0739 -0.07,0.4719 -0.1606,0.9319 -0.269,1.3818 h 1.0684 c -0.053,0.2192 -0.109,0.4369 -0.1705,0.6509 -0.2403,0.8122 -0.5468,1.6235 -0.9157,2.4337 h -0.4024 c -0.2688,0.5902 -0.5696,1.1799 -0.9065,1.769 h 1.465 c 0.3832,-0.595 0.7229,-1.1844 1.0239,-1.769 h 0.4023 c 0.4278,-0.8307 0.7748,-1.6514 1.0364,-2.4611 0.068,-0.2086 0.1275,-0.4162 0.1846,-0.6235 h -1.0683 c 0.3227,-1.1712 0.4871,-2.3232 0.4918,-3.4557 h 0.6659 c 0,-0.017 0,-0.034 0,-0.05 0,-0.9083 -0.1067,-1.8326 -0.3154,-2.772 h 1.2884 c -0.085,-0.3828 -0.1871,-0.7682 -0.3067,-1.1562 h -0.6778 c -0.019,-0.061 -0.036,-0.1218 -0.056,-0.1829 -0.2336,-0.7302 -0.5393,-1.471 -0.9127,-2.2219 h -0.7627 c -0.329,-0.6615 -0.71,-1.3307 -1.1475,-2.0083 z m -13.8506,3.9738 0.3287,0.4393 h 0.6777 l 0.8651,1.1562 h -1.2884 l 2.1114,2.8224 h -0.666 l 0.3665,0.4898 -2.2346,2.9658 h 1.0684 l -1.7943,2.3815 h 1.9504 l 1.7344,-2.3815 h -1.0685 l 1.2597,-1.7297 1.2637,1.7297 h 1.0683 l 1.7397,2.3815 h 1.9503 l -1.7943,-2.3815 h -1.0683 l -2.2344,-2.9658 0.3664,-0.4898 h 0.6659 l 2.1115,-2.8224 h 1.2885 l 0.8651,-1.1562 h -0.6778 l 0.3286,-0.4393 h -1.8953 l -0.32,0.4393 h 0.6778 l -0.8422,1.1562 h -1.2885 l -1.539,2.1128 -1.5493,-2.1128 h 1.2884 l -0.8478,-1.1562 h -0.6779 l -0.3221,-0.4393 z" />
    <path
       id="path33361-2"
       style="font-size:100.011px;font-family:Hack;-inkscape-font-specification:Hack;fill:#add8e6;stroke-width:1.56267"
       d="m 1214.9951,1072.6392 c -1.0928,0 -1.8986,0.2655 -2.4174,0.7966 -0.2986,0.3093 -0.5097,0.7198 -0.6345,1.23 h 0.7628 c -0.089,0.3657 -0.1347,0.7824 -0.1347,1.2513 v 0.7142 h -2.7377 v 0.4393 h 0.6778 v 0.87 h 2.7376 v 0.2862 h -1.2884 v 2.8225 h -0.6659 v 3.4555 h 1.0683 v 2.3815 h 1.6847 v -2.3815 h -1.0683 v -3.4555 h 0.666 v -2.8225 h 1.2885 v -0.2862 h 3.5251 v -0.87 h -0.6777 v -0.4393 h -3.5252 v -0.9064 c 0,-0.4536 0.063,-0.8056 0.1868,-1.0591 h -0.7627 c 0.047,-0.098 0.1043,-0.1823 0.1702,-0.2504 0.2381,-0.2502 0.6562,-0.3753 1.2545,-0.3753 h 1.9136 v -1.4009 z m 9.2843,0.018 c -0.44,0.6857 -0.8188,1.3547 -1.1411,2.0083 h 0.7627 c -0.023,0.045 -0.046,0.09 -0.068,0.1342 -0.3357,0.6898 -0.6195,1.3857 -0.8515,2.0877 -0.02,0.061 -0.037,0.1219 -0.056,0.1829 h 0.6778 c -0.1197,0.388 -0.2217,0.7734 -0.3068,1.1562 h -1.2884 c -0.2086,0.9394 -0.3155,1.8637 -0.3155,2.772 0,0.017 0,0.034 0,0.05 h -0.666 c 0,1.1367 0.1701,2.2887 0.4953,3.4557 h 1.0683 c 0.056,0.2013 0.115,0.4029 0.1812,0.6051 0.2615,0.8026 0.6125,1.6295 1.049,2.4795 h -0.4023 c 0.2971,0.5789 0.6327,1.1681 1.0111,1.769 h 1.4651 c -0.3396,-0.5903 -0.6412,-1.18 -0.9092,-1.769 h 0.4024 c -0.4689,-1.0303 -0.8286,-2.0585 -1.0784,-3.0846 h -1.0684 c -0.2812,-1.1545 -0.4248,-2.3064 -0.4288,-3.4557 h 0.6659 c -10e-5,-0.017 0,-0.034 0,-0.05 0,-0.9199 0.091,-1.844 0.2683,-2.772 h 1.2886 c 0.073,-0.3847 0.1628,-0.7701 0.267,-1.1562 h -0.6778 c 0.023,-0.085 0.044,-0.1707 0.069,-0.2562 0.1953,-0.6837 0.4365,-1.3612 0.7235,-2.0327 0.017,-0.038 0.036,-0.077 0.052,-0.1159 h -0.7628 c 0.284,-0.6426 0.6282,-1.3114 1.0371,-2.0083 z m 21.5081,0 c 0.3945,0.6803 0.7332,1.3494 1.0205,2.0083 h 0.7628 c 0.019,0.045 0.04,0.09 0.061,0.1342 0.3051,0.702 0.5525,1.3796 0.7416,2.0327 0.023,0.079 0.043,0.1586 0.064,0.2379 h 0.6779 c 0.1043,0.3842 0.1937,0.7696 0.2672,1.1562 h -1.2885 c 0.1743,0.9174 0.2636,1.8413 0.2636,2.772 0,0.017 0,0.034 0,0.05 h -0.6659 c 0,0.6971 -0.053,1.3884 -0.1548,2.0739 -0.07,0.4719 -0.1605,0.9319 -0.2689,1.3818 h 1.0684 c -0.053,0.2192 -0.1091,0.4369 -0.1706,0.6509 -0.2401,0.8122 -0.5467,1.6235 -0.9157,2.4337 h -0.4023 c -0.2687,0.5902 -0.5695,1.1799 -0.9066,1.769 h 1.465 c 0.3833,-0.595 0.723,-1.1844 1.0239,-1.769 h 0.4024 c 0.4277,-0.8307 0.7747,-1.6514 1.0363,-2.4611 0.068,-0.2086 0.1275,-0.4162 0.1846,-0.6235 h -1.0683 c 0.3227,-1.1712 0.4871,-2.3232 0.4919,-3.4557 h 0.6658 c 10e-5,-0.017 0,-0.034 0,-0.05 0,-0.9083 -0.1067,-1.8326 -0.3155,-2.772 h 1.2885 c -0.085,-0.3828 -0.1871,-0.7682 -0.3068,-1.1562 h -0.6778 c -0.019,-0.061 -0.036,-0.1218 -0.056,-0.1829 -0.2337,-0.7302 -0.5394,-1.471 -0.9128,-2.2219 h -0.7627 c -0.329,-0.6615 -0.71,-1.3307 -1.1474,-2.0083 z m -13.8506,3.9738 0.3287,0.4393 h 0.6777 l 0.8651,1.1562 h -1.2885 l 2.1115,2.8224 h -0.6659 l 0.3664,0.4898 -2.2345,2.9658 h 1.0683 l -1.7942,2.3815 h 1.9502 l 1.7344,-2.3815 h -1.0683 l 1.2597,-1.7297 1.2635,1.7297 h 1.0683 l 1.7398,2.3815 h 1.9503 l -1.7943,-2.3815 h -1.0684 l -2.2344,-2.9658 0.3665,-0.4898 h 0.6659 l 2.1115,-2.8224 h 1.2885 l 0.865,-1.1562 h -0.6777 l 0.3287,-0.4393 h -1.8954 l -0.3201,0.4393 h 0.6778 l -0.8422,1.1562 h -1.2885 l -1.539,2.1128 -1.5492,-2.1128 h 1.2885 l -0.848,-1.1562 h -0.6777 l -0.3222,-0.4393 z" />
    <path
       id="rect5481-0-1-9-5-2"
       style="fill:#1b1b1b;fill-opacity:1;stroke-width:0.12278"
       d="m 1979.511,978.08502 a 22.577807,22.577726 0 0 0 -22.578,22.57818 v 45.1554 45.1549 a 22.577807,22.577726 0 0 0 22.578,22.5782 h 90.3115 a 22.577807,22.577726 0 0 0 22.5772,-22.5782 v -45.1549 -45.1554 a 22.577807,22.577726 0 0 0 -22.5772,-22.57818 z"
       inkscape:export-filename="experimental\maskable_icon_x512.png"
       inkscape:export-xdpi="96"
       inkscape:export-ydpi="96" />
    <path
       id="path41693-0"
       style="fill:#141414;fill-opacity:1;stroke-width:0.12278"
       d="m 1961.7487,986.74735 a 22.577807,22.577726 0 0 0 -4.8157,13.91595 v 45.1554 45.1548 a 22.577807,22.577726 0 0 0 22.578,22.5783 h 90.3115 a 22.577807,22.577726 0 0 0 16.6532,-7.3334 z" />
    <path
       id="path39931-0"
       style="font-size:100.011px;font-family:Hack;-inkscape-font-specification:Hack;fill:#6269cf;fill-opacity:1;stroke-width:4.16713"
       d="m 1987.4376,1023.526 c -2.9137,0 -5.0625,0.708 -6.4461,2.1241 -0.7964,0.8249 -1.3593,1.9196 -1.6919,3.2802 h 2.034 c -0.2384,0.9753 -0.3591,2.0862 -0.3591,3.3367 v 1.9046 h -7.3006 v 1.1715 h 1.8074 v 2.32 h 7.3005 v 0.7633 h -3.4359 v 7.5264 h -1.7759 v 9.2149 h 2.8489 v 6.3505 h 4.4928 v -6.3505 h -2.8489 v -9.2149 h 1.7758 v -7.5264 h 3.436 v -0.7633 h 9.4004 v -2.32 h -1.8073 v -1.1715 h -9.4005 v -2.4172 c 0,-1.2096 0.1678,-2.1482 0.4982,-2.8241 h -2.034 c 0.1275,-0.261 0.2771,-0.4863 0.454,-0.6677 0.6348,-0.6673 1.75,-1.0009 3.3452,-1.0009 h 5.1031 v -3.7357 z m 24.7585,0.049 c -1.1734,1.8286 -2.1835,3.6125 -3.043,5.3555 h 2.034 c -0.059,0.1189 -0.1229,0.2393 -0.1801,0.3578 -0.8953,1.8394 -1.6521,3.6952 -2.2707,5.5671 -0.052,0.1631 -0.097,0.3251 -0.1475,0.4879 h 1.8074 c -0.3191,1.0346 -0.5914,2.0623 -0.8181,3.0832 h -3.4359 c -0.5562,2.505 -0.8413,4.9698 -0.8413,7.3921 0,0.045 0,0.09 0,0.1343 h -1.7759 c 0.012,3.0312 0.4537,6.103 1.3209,9.215 h 2.8489 c 0.1496,0.5369 0.3081,1.0746 0.4832,1.6138 0.6972,2.1402 1.6334,4.3452 2.7972,6.612 h -1.0731 c 0.7926,1.5436 1.6876,3.115 2.6965,4.7173 h 3.9068 c -0.9055,-1.5743 -1.7097,-3.1466 -2.4244,-4.7173 h 1.073 c -1.2501,-2.7474 -2.2094,-5.4894 -2.8758,-8.2258 h -2.8489 c -0.7497,-3.0786 -1.1328,-6.1503 -1.1436,-9.215 h 1.7759 c -2e-4,-0.045 -0.01,-0.09 -0.01,-0.1343 0,-2.4532 0.2421,-4.9174 0.7157,-7.3921 h 3.436 c 0.1963,-1.0259 0.4341,-2.0537 0.7118,-3.0832 h -1.8074 c 0.061,-0.2278 0.1186,-0.4553 0.184,-0.6832 0.5209,-1.8231 1.164,-3.63 1.9291,-5.4206 0.044,-0.1019 0.095,-0.2067 0.14,-0.309 h -2.034 c 0.7572,-1.7137 1.6749,-3.4969 2.7655,-5.3555 z m 57.3549,0 c 1.0519,1.8141 1.9552,3.5985 2.7215,5.3555 h 2.034 c 0.052,0.119 0.109,0.239 0.1597,0.3578 0.8139,1.872 1.4733,3.6789 1.9779,5.4206 0.061,0.2112 0.1141,0.4229 0.1715,0.6344 h 1.8074 c 0.2786,1.0246 0.5167,2.0523 0.7126,3.0832 h -3.4359 c 0.465,2.4463 0.7028,4.9101 0.7028,7.3921 0,0.045 0,0.089 -0.01,0.1343 h -1.7756 c -0.01,1.8589 -0.1425,3.7024 -0.4127,5.5302 -0.186,1.2585 -0.4282,2.4851 -0.7172,3.6848 h 2.8489 c -0.1409,0.5847 -0.2894,1.1651 -0.4548,1.7358 -0.6404,2.166 -1.4579,4.3294 -2.4417,6.49 h -1.073 c -0.7166,1.5739 -1.5188,3.1463 -2.4175,4.7173 h 3.9068 c 1.0219,-1.5866 1.9278,-3.1584 2.7303,-4.7173 h 1.0731 c 1.1405,-2.2154 2.0659,-4.4037 2.7634,-6.5631 0.1789,-0.5561 0.3401,-1.1099 0.4924,-1.6627 h -2.8489 c 0.8606,-3.1231 1.299,-6.195 1.3116,-9.215 h 1.7756 c 2e-4,-0.045 0.01,-0.09 0.01,-0.1343 0,-2.4223 -0.2851,-4.8871 -0.8413,-7.3921 h 3.4359 c -0.2266,-1.0209 -0.4989,-2.0486 -0.818,-3.0832 h -1.8074 c -0.05,-0.1628 -0.095,-0.3248 -0.1475,-0.4879 -0.6231,-1.947 -1.4383,-3.9227 -2.434,-5.9249 h -2.034 c -0.8772,-1.7641 -1.8932,-3.5486 -3.0597,-5.3555 z m -36.935,10.5967 0.8764,1.1716 h 1.8074 l 2.3069,3.0832 h -3.436 l 5.6307,7.5264 h -1.7759 l 0.9772,1.3062 -5.9588,7.9088 h 2.8489 l -4.7847,6.3505 h 5.2007 l 4.625,-6.3505 h -2.8489 l 3.3592,-4.6127 3.3696,4.6127 h 2.8489 l 4.6393,6.3505 h 5.2007 l -4.7847,-6.3505 h -2.8489 l -5.9586,-7.9088 0.9772,-1.3062 h 1.7759 l 5.6306,-7.5264 h 3.436 l 2.3068,-3.0832 h -1.8073 l 0.8764,-1.1716 h -5.0542 l -0.8535,1.1716 h 1.8074 l -2.2458,3.0832 h -3.436 l -4.1039,5.6341 -4.1315,-5.6341 h 3.4359 l -2.2611,-3.0832 h -1.8073 l -0.8592,-1.1716 z" />
    <path
       id="path39933-7"
       style="font-size:100.011px;font-family:Hack;-inkscape-font-specification:Hack;fill:#7a2648;fill-opacity:1;stroke-width:4.16713"
       d="m 1980.5584,1023.526 c -2.9137,0 -5.0625,0.708 -6.4461,2.1241 -0.7965,0.8249 -1.3593,1.9196 -1.6919,3.2802 h 2.034 c -0.2384,0.9753 -0.3592,2.0862 -0.3592,3.3367 v 1.9046 h -7.3005 v 1.1715 h 1.8073 v 2.32 h 7.3006 v 0.7633 h -3.4359 v 7.5264 h -1.7759 v 9.2149 h 2.8489 v 6.3505 h 4.4928 v -6.3505 h -2.8489 v -9.2149 h 1.7758 v -7.5264 h 3.436 v -0.7633 h 9.4004 v -2.32 h -1.8073 v -1.1715 h -9.4005 v -2.4172 c 0,-1.2096 0.1678,-2.1482 0.4982,-2.8241 h -2.034 c 0.1275,-0.261 0.2771,-0.4863 0.4539,-0.6677 0.6349,-0.6673 1.7501,-1.0009 3.3453,-1.0009 h 5.1031 v -3.7357 z m 24.7585,0.049 c -1.1734,1.8286 -2.1835,3.6125 -3.043,5.3555 h 2.034 c -0.059,0.1189 -0.123,0.2393 -0.1801,0.3578 -0.8953,1.8394 -1.6521,3.6952 -2.2707,5.5671 -0.053,0.1631 -0.097,0.3251 -0.1475,0.4879 h 1.8074 c -0.3191,1.0346 -0.5914,2.0623 -0.8181,3.0832 h -3.4359 c -0.5562,2.505 -0.8413,4.9698 -0.8413,7.3921 0,0.045 0,0.09 0,0.1343 h -1.7759 c 0.013,3.0312 0.4537,6.103 1.3209,9.215 h 2.8489 c 0.1496,0.5369 0.3081,1.0746 0.4832,1.6138 0.6972,2.1402 1.6333,4.3452 2.7972,6.612 h -1.0731 c 0.7925,1.5436 1.6876,3.115 2.6965,4.7173 h 3.9068 c -0.9055,-1.5743 -1.7098,-3.1466 -2.4244,-4.7173 h 1.073 c -1.2501,-2.7474 -2.2094,-5.4894 -2.8758,-8.2258 h -2.8489 c -0.7497,-3.0786 -1.1328,-6.1503 -1.1436,-9.215 h 1.7759 c -2e-4,-0.045 0,-0.09 0,-0.1343 0,-2.4532 0.2421,-4.9174 0.7157,-7.3921 h 3.4359 c 0.1963,-1.0259 0.4342,-2.0537 0.7119,-3.0832 h -1.8074 c 0.061,-0.2278 0.1186,-0.4553 0.184,-0.6832 0.5208,-1.8231 1.164,-3.63 1.9291,-5.4206 0.044,-0.1019 0.095,-0.2067 0.14,-0.309 h -2.034 c 0.7572,-1.7137 1.6749,-3.4969 2.7655,-5.3555 z m 57.3549,0 c 1.0518,1.8141 1.9551,3.5985 2.7215,5.3555 h 2.034 c 0.052,0.119 0.109,0.239 0.1597,0.3578 0.8138,1.872 1.4733,3.6789 1.9779,5.4206 0.061,0.2112 0.1141,0.4229 0.1715,0.6344 h 1.8074 c 0.2786,1.0246 0.5167,2.0523 0.7126,3.0832 h -3.4359 c 0.465,2.4463 0.7028,4.9101 0.7028,7.3921 0,0.045 0,0.089 0,0.1343 h -1.7756 c -0.01,1.8589 -0.1425,3.7024 -0.4127,5.5302 -0.186,1.2585 -0.4282,2.4851 -0.7172,3.6848 h 2.8489 c -0.1409,0.5847 -0.2894,1.1651 -0.4548,1.7358 -0.6404,2.166 -1.458,4.3294 -2.4417,6.49 h -1.073 c -0.7166,1.5739 -1.5188,3.1463 -2.4175,4.7173 h 3.9068 c 1.0219,-1.5866 1.9278,-3.1584 2.7303,-4.7173 h 1.0731 c 1.1405,-2.2154 2.0659,-4.4037 2.7634,-6.5631 0.1789,-0.5561 0.3401,-1.1099 0.4924,-1.6627 h -2.8489 c 0.8606,-3.1231 1.299,-6.195 1.3116,-9.215 h 1.7756 c 10e-5,-0.045 0,-0.09 0,-0.1343 0,-2.4223 -0.2851,-4.8871 -0.8413,-7.3921 h 3.4359 c -0.2266,-1.0209 -0.499,-2.0486 -0.818,-3.0832 h -1.8074 c -0.05,-0.1628 -0.095,-0.3248 -0.1475,-0.4879 -0.6231,-1.947 -1.4383,-3.9227 -2.434,-5.9249 h -2.034 c -0.8772,-1.7641 -1.8932,-3.5486 -3.0597,-5.3555 z m -36.935,10.5967 0.8764,1.1716 h 1.8074 l 2.3068,3.0832 h -3.4359 l 5.6306,7.5264 h -1.7758 l 0.9772,1.3062 -5.9588,7.9088 h 2.8489 l -4.7847,6.3505 h 5.2007 l 4.625,-6.3505 h -2.8489 l 3.3592,-4.6127 3.3696,4.6127 h 2.8489 l 4.6393,6.3505 h 5.2007 l -4.7847,-6.3505 h -2.849 l -5.9585,-7.9088 0.9772,-1.3062 h 1.7759 l 5.6306,-7.5264 h 3.436 l 2.3068,-3.0832 h -1.8074 l 0.8765,-1.1716 h -5.0542 l -0.8535,1.1716 h 1.8074 l -2.2459,3.0832 h -3.4359 l -4.1039,5.6341 -4.1315,-5.6341 h 3.4359 l -2.2611,-3.0832 h -1.8074 l -0.8591,-1.1716 z" />
    <path
       id="path33361-22"
       style="font-size:100.011px;font-family:Hack;-inkscape-font-specification:Hack;fill:#add8e6;stroke-width:4.16713"
       d="m 1984.2626,1023.526 c -2.9137,0 -5.0625,0.708 -6.4461,2.1241 -0.7965,0.8249 -1.3594,1.9196 -1.6919,3.2802 h 2.034 c -0.2384,0.9753 -0.3592,2.0862 -0.3592,3.3367 v 1.9046 h -7.3006 v 1.1715 h 1.8074 v 2.32 h 7.3006 v 0.7633 h -3.4359 v 7.5264 h -1.7759 v 9.2149 h 2.8489 v 6.3505 h 4.4928 v -6.3505 h -2.849 v -9.2149 h 1.7759 v -7.5264 h 3.436 v -0.7633 h 9.4004 v -2.32 h -1.8074 v -1.1715 h -9.4004 v -2.4172 c 0,-1.2096 0.1678,-2.1482 0.4981,-2.8241 h -2.0339 c 0.1275,-0.261 0.2771,-0.4863 0.4539,-0.6677 0.6349,-0.6673 1.7501,-1.0009 3.3453,-1.0009 h 5.1031 v -3.7357 z m 24.7584,0.049 c -1.1733,1.8286 -2.1834,3.6125 -3.0429,5.3555 h 2.034 c -0.059,0.1189 -0.123,0.2393 -0.1801,0.3578 -0.8953,1.8394 -1.6521,3.6952 -2.2707,5.5671 -0.053,0.1631 -0.097,0.3251 -0.1475,0.4879 h 1.8074 c -0.3191,1.0346 -0.5914,2.0623 -0.8181,3.0832 h -3.436 c -0.5561,2.505 -0.8412,4.9698 -0.8412,7.3921 0,0.045 0.01,0.09 0.01,0.1343 h -1.7759 c 0.013,3.0312 0.4537,6.103 1.3208,9.215 h 2.849 c 0.1496,0.5369 0.3081,1.0746 0.4831,1.6138 0.6973,2.1402 1.6334,4.3452 2.7973,6.612 h -1.0731 c 0.7925,1.5436 1.6876,3.115 2.6965,4.7173 h 3.9067 c -0.9054,-1.5743 -1.7097,-3.1466 -2.4244,-4.7173 h 1.0731 c -1.2502,-2.7474 -2.2094,-5.4894 -2.8758,-8.2258 h -2.8489 c -0.7497,-3.0786 -1.1328,-6.1503 -1.1436,-9.215 h 1.7759 c -2e-4,-0.045 0,-0.09 0,-0.1343 0,-2.4532 0.2421,-4.9174 0.7157,-7.3921 h 3.4359 c 0.1963,-1.0259 0.4342,-2.0537 0.7119,-3.0832 h -1.8074 c 0.061,-0.2278 0.1186,-0.4553 0.184,-0.6832 0.5208,-1.8231 1.164,-3.63 1.929,-5.4206 0.044,-0.1019 0.095,-0.2067 0.1401,-0.309 h -2.034 c 0.7572,-1.7137 1.6749,-3.4969 2.7655,-5.3555 z m 57.3549,0 c 1.0519,1.8141 1.9552,3.5985 2.7216,5.3555 h 2.034 c 0.052,0.119 0.109,0.239 0.1596,0.3578 0.8139,1.872 1.4734,3.6789 1.978,5.4206 0.061,0.2112 0.114,0.4229 0.1715,0.6344 h 1.8074 c 0.2786,1.0246 0.5167,2.0523 0.7126,3.0832 h -3.4359 c 0.465,2.4463 0.7028,4.9101 0.7028,7.3921 0,0.045 0,0.089 -0.01,0.1343 h -1.7756 c -0.01,1.8589 -0.1425,3.7024 -0.4127,5.5302 -0.186,1.2585 -0.4282,2.4851 -0.7172,3.6848 h 2.8489 c -0.1409,0.5847 -0.2894,1.1651 -0.4548,1.7358 -0.6404,2.166 -1.458,4.3294 -2.4417,6.49 h -1.073 c -0.7166,1.5739 -1.5188,3.1463 -2.4175,4.7173 h 3.9068 c 1.0219,-1.5866 1.9278,-3.1584 2.7303,-4.7173 h 1.0731 c 1.1405,-2.2154 2.0658,-4.4037 2.7633,-6.5631 0.1789,-0.5561 0.3402,-1.1099 0.4925,-1.6627 h -2.8489 c 0.8606,-3.1231 1.299,-6.195 1.3116,-9.215 h 1.7756 c 1e-4,-0.045 0,-0.09 0,-0.1343 0,-2.4223 -0.2852,-4.8871 -0.8413,-7.3921 h 3.4359 c -0.2266,-1.0209 -0.499,-2.0486 -0.818,-3.0832 h -1.8074 c -0.05,-0.1628 -0.095,-0.3248 -0.1475,-0.4879 -0.6231,-1.947 -1.4383,-3.9227 -2.434,-5.9249 h -2.034 c -0.8772,-1.7641 -1.8933,-3.5486 -3.0597,-5.3555 z m -36.9349,10.5967 0.8764,1.1716 h 1.8074 l 2.3068,3.0832 h -3.4359 l 5.6306,7.5264 h -1.7758 l 0.9772,1.3062 -5.9588,7.9088 h 2.8489 l -4.7847,6.3505 h 5.2007 l 4.625,-6.3505 h -2.8489 l 3.3592,-4.6127 3.3696,4.6127 h 2.8489 l 4.6393,6.3505 h 5.2007 l -4.7847,-6.3505 h -2.849 l -5.9585,-7.9088 0.9772,-1.3062 h 1.7758 l 5.6307,-7.5264 h 3.436 l 2.3068,-3.0832 h -1.8074 l 0.8765,-1.1716 h -5.0542 l -0.8535,1.1716 h 1.8074 l -2.2459,3.0832 h -3.4359 l -4.1039,5.6341 -4.1315,-5.6341 h 3.4359 l -2.2611,-3.0832 h -1.8074 l -0.8591,-1.1716 z" />
    <path
       id="rect5481-0-1-9-5-0"
       style="fill:#1b1b1b;fill-opacity:1;stroke-width:0.24556"
       d="m 242.00595,1435.0999 a 45.155609,45.155447 0 0 0 -45.1559,45.1564 v 90.3108 90.3098 a 45.155609,45.155447 0 0 0 45.1559,45.1564 h 180.623 a 45.155609,45.155447 0 0 0 45.1544,-45.1564 v -90.3098 -90.3108 a 45.155609,45.155447 0 0 0 -45.1544,-45.1564 z"
       inkscape:export-filename="experimental\favicon-temp.png"
       inkscape:export-xdpi="96"
       inkscape:export-ydpi="96" />
    <path
       id="path41693-3"
       style="fill:#141414;fill-opacity:1;stroke-width:0.24556"
       d="m 206.48144,1452.4246 a 45.155609,45.155447 0 0 0 -9.63146,27.8319 v 90.3107 90.3098 a 45.155609,45.155447 0 0 0 45.1559,45.1564 h 180.62309 a 45.155609,45.155447 0 0 0 33.30649,-14.6668 z" />
    <g
       id="g45037"
       transform="translate(2.254675,2.1155)">
      <path
         id="path39931-5"
         style="font-size:100.011px;font-family:Hack;-inkscape-font-specification:Hack;fill:#6269cf;fill-opacity:1;stroke-width:18.3708"
         d="m 355.20259,1484.7068 c -12.8451,0 -22.31807,3.121 -28.41769,9.3643 -3.51114,3.6364 -5.99264,8.4623 -7.45866,14.4605 h 8.96681 c -1.05083,4.2994 -1.58333,9.1973 -1.58333,14.7101 v 8.3962 h -32.1846 v 5.1645 h 7.96783 v 10.2277 h 32.18461 v 3.365 h -15.14743 v 33.1801 h -7.82887 v 40.6241 h 12.55945 v 27.9961 h 19.80626 v -27.9961 h -12.55945 v -40.6241 h 7.82887 v -33.1801 h 15.14744 v -3.365 h 41.44188 v -10.2277 h -7.96785 v -5.1645 h -41.44188 v -10.656 c 0,-5.3323 0.73964,-9.4708 2.19614,-12.4503 h -8.96682 c 0.56237,-1.1504 1.22177,-2.1438 2.00137,-2.9433 2.7986,-2.9422 7.71513,-4.4127 14.74763,-4.4127 h 22.49675 v -16.4688 z" />
      <path
         id="path39933-9"
         style="font-size:100.011px;font-family:Hack;-inkscape-font-specification:Hack;fill:#7a2648;fill-opacity:1;stroke-width:18.3708"
         d="m 324.8758,1484.7068 c -12.84507,0 -22.31804,3.121 -28.41766,9.3643 -3.51112,3.6364 -5.99267,8.4623 -7.45869,14.4605 h 8.96681 c -1.05085,4.2994 -1.58331,9.1973 -1.58331,14.7101 v 8.3962 h -32.18461 v 5.1645 h 7.96785 v 10.2277 h 32.18461 v 3.365 h -15.14746 v 33.1801 h -7.82887 v 40.6241 h 12.55948 v 27.9961 h 19.80626 v -27.9961 h -12.55947 v -40.6241 h 7.82887 v -33.1801 h 15.14743 v -3.365 h 41.44188 v -10.2277 h -7.96782 v -5.1645 h -41.44188 v -10.656 c 0,-5.3323 0.73963,-9.4708 2.19613,-12.4503 h -8.96681 c 0.56237,-1.1504 1.22177,-2.1438 2.00137,-2.9433 2.7986,-2.9422 7.71513,-4.4127 14.74761,-4.4127 h 22.49676 v -16.4688 z" />
      <path
         id="path33361-3"
         style="font-size:100.011px;font-family:Hack;-inkscape-font-specification:Hack;fill:#add8e6;stroke-width:18.3708"
         d="m 341.20562,1484.7068 c -12.8451,0 -22.31805,3.121 -28.41769,9.3643 -3.51112,3.6364 -5.99264,8.4623 -7.45866,14.4605 h 8.96681 c -1.05083,4.2994 -1.58334,9.1973 -1.58334,14.7101 v 8.3962 h -32.18459 v 5.1645 h 7.96783 v 10.2277 h 32.18461 v 3.365 h -15.14743 v 33.1801 h -7.82887 v 40.6241 h 12.55945 v 27.9961 H 330.07 v -27.9961 h -12.55945 v -40.6241 h 7.82887 v -33.1801 h 15.14744 v -3.365 h 41.44188 v -10.2277 h -7.96785 v -5.1645 h -41.44188 v -10.656 c 0,-5.3323 0.73964,-9.4708 2.19614,-12.4503 h -8.96682 c 0.56237,-1.1504 1.22177,-2.1438 2.00137,-2.9433 2.7986,-2.9422 7.71513,-4.4127 14.74763,-4.4127 h 22.49675 v -16.4688 z" />
    </g>
  </g>
</svg>
